<svg width="529" height="305" viewBox="0 0 529 305" fill="none" xmlns="http://www.w3.org/2000/svg">
<rect width="529" height="305" fill="white"/>
<rect x="181.5" y="14.5" width="170" height="51" stroke="black" stroke-width="3"/>
<path d="M237.398 30.9375L242.977 44.8594L248.555 30.9375H251.473V48H249.223V41.3555L249.434 34.1836L243.832 48H242.109L236.52 34.2188L236.742 41.3555V48H234.492V30.9375H237.398ZM262.934 48C262.809 47.75 262.707 47.3047 262.629 46.6641C261.621 47.7109 260.418 48.2344 259.02 48.2344C257.77 48.2344 256.742 47.8828 255.938 47.1797C255.141 46.4688 254.742 45.5703 254.742 44.4844C254.742 43.1641 255.242 42.1406 256.242 41.4141C257.25 40.6797 258.664 40.3125 260.484 40.3125H262.594V39.3164C262.594 38.5586 262.367 37.957 261.914 37.5117C261.461 37.0586 260.793 36.832 259.91 36.832C259.137 36.832 258.488 37.0273 257.965 37.418C257.441 37.8086 257.18 38.2812 257.18 38.8359H255C255 38.2031 255.223 37.5938 255.668 37.0078C256.121 36.4141 256.73 35.9453 257.496 35.6016C258.27 35.2578 259.117 35.0859 260.039 35.0859C261.5 35.0859 262.645 35.4531 263.473 36.1875C264.301 36.9141 264.73 37.918 264.762 39.1992V45.0352C264.762 46.1992 264.91 47.125 265.207 47.8125V48H262.934ZM259.336 46.3477C260.016 46.3477 260.66 46.1719 261.27 45.8203C261.879 45.4688 262.32 45.0117 262.594 44.4492V41.8477H260.895C258.238 41.8477 256.91 42.625 256.91 44.1797C256.91 44.8594 257.137 45.3906 257.59 45.7734C258.043 46.1562 258.625 46.3477 259.336 46.3477ZM270.516 48H268.348V35.3203H270.516V48ZM268.172 31.957C268.172 31.6055 268.277 31.3086 268.488 31.0664C268.707 30.8242 269.027 30.7031 269.449 30.7031C269.871 30.7031 270.191 30.8242 270.41 31.0664C270.629 31.3086 270.738 31.6055 270.738 31.957C270.738 32.3086 270.629 32.6016 270.41 32.8359C270.191 33.0703 269.871 33.1875 269.449 33.1875C269.027 33.1875 268.707 33.0703 268.488 32.8359C268.277 32.6016 268.172 32.3086 268.172 31.957ZM276.047 35.3203L276.117 36.9141C277.086 35.6953 278.352 35.0859 279.914 35.0859C282.594 35.0859 283.945 36.5977 283.969 39.6211V48H281.801V39.6094C281.793 38.6953 281.582 38.0195 281.168 37.582C280.762 37.1445 280.125 36.9258 279.258 36.9258C278.555 36.9258 277.938 37.1133 277.406 37.4883C276.875 37.8633 276.461 38.3555 276.164 38.9648V48H273.996V35.3203H276.047ZM287.285 46.8633C287.285 46.4883 287.395 46.1758 287.613 45.9258C287.84 45.6758 288.176 45.5508 288.621 45.5508C289.066 45.5508 289.402 45.6758 289.629 45.9258C289.863 46.1758 289.98 46.4883 289.98 46.8633C289.98 47.2227 289.863 47.5234 289.629 47.7656C289.402 48.0078 289.066 48.1289 288.621 48.1289C288.176 48.1289 287.84 48.0078 287.613 47.7656C287.395 47.5234 287.285 47.2227 287.285 46.8633ZM298.652 46.4648C299.426 46.4648 300.102 46.2305 300.68 45.7617C301.258 45.293 301.578 44.707 301.641 44.0039H303.691C303.652 44.7305 303.402 45.4219 302.941 46.0781C302.48 46.7344 301.863 47.2578 301.09 47.6484C300.324 48.0391 299.512 48.2344 298.652 48.2344C296.926 48.2344 295.551 47.6602 294.527 46.5117C293.512 45.3555 293.004 43.7773 293.004 41.7773V41.4141C293.004 40.1797 293.23 39.082 293.684 38.1211C294.137 37.1602 294.785 36.4141 295.629 35.8828C296.48 35.3516 297.484 35.0859 298.641 35.0859C300.062 35.0859 301.242 35.5117 302.18 36.3633C303.125 37.2148 303.629 38.3203 303.691 39.6797H301.641C301.578 38.8594 301.266 38.1875 300.703 37.6641C300.148 37.1328 299.461 36.8672 298.641 36.8672C297.539 36.8672 296.684 37.2656 296.074 38.0625C295.473 38.8516 295.172 39.9961 295.172 41.4961V41.9062C295.172 43.3672 295.473 44.4922 296.074 45.2812C296.676 46.0703 297.535 46.4648 298.652 46.4648Z" fill="black"/>
<rect x="181.5" y="139.5" width="170" height="51" stroke="black" stroke-width="3"/>
<path d="M210.387 165.066L208.301 167.234V173H206.051V155.938H208.301V164.375L215.883 155.938H218.602L211.887 163.473L219.129 173H216.434L210.387 165.066ZM228.305 171.746C227.461 172.738 226.223 173.234 224.59 173.234C223.238 173.234 222.207 172.844 221.496 172.062C220.793 171.273 220.438 170.109 220.43 168.57V160.32H222.598V168.512C222.598 170.434 223.379 171.395 224.941 171.395C226.598 171.395 227.699 170.777 228.246 169.543V160.32H230.414V173H228.352L228.305 171.746ZM239.848 162.266C239.52 162.211 239.164 162.184 238.781 162.184C237.359 162.184 236.395 162.789 235.887 164V173H233.719V160.32H235.828L235.863 161.785C236.574 160.652 237.582 160.086 238.887 160.086C239.309 160.086 239.629 160.141 239.848 160.25V162.266ZM241.043 166.543C241.043 165.301 241.285 164.184 241.77 163.191C242.262 162.199 242.941 161.434 243.809 160.895C244.684 160.355 245.68 160.086 246.797 160.086C248.523 160.086 249.918 160.684 250.98 161.879C252.051 163.074 252.586 164.664 252.586 166.648V166.801C252.586 168.035 252.348 169.145 251.871 170.129C251.402 171.105 250.727 171.867 249.844 172.414C248.969 172.961 247.961 173.234 246.82 173.234C245.102 173.234 243.707 172.637 242.637 171.441C241.574 170.246 241.043 168.664 241.043 166.695V166.543ZM243.223 166.801C243.223 168.207 243.547 169.336 244.195 170.188C244.852 171.039 245.727 171.465 246.82 171.465C247.922 171.465 248.797 171.035 249.445 170.176C250.094 169.309 250.418 168.098 250.418 166.543C250.418 165.152 250.086 164.027 249.422 163.168C248.766 162.301 247.891 161.867 246.797 161.867C245.727 161.867 244.863 162.293 244.207 163.145C243.551 163.996 243.223 165.215 243.223 166.801ZM257.344 160.32L257.402 161.727C258.332 160.633 259.586 160.086 261.164 160.086C262.938 160.086 264.145 160.766 264.785 162.125C265.207 161.516 265.754 161.023 266.426 160.648C267.105 160.273 267.906 160.086 268.828 160.086C271.609 160.086 273.023 161.559 273.07 164.504V173H270.902V164.633C270.902 163.727 270.695 163.051 270.281 162.605C269.867 162.152 269.172 161.926 268.195 161.926C267.391 161.926 266.723 162.168 266.191 162.652C265.66 163.129 265.352 163.773 265.266 164.586V173H263.086V164.691C263.086 162.848 262.184 161.926 260.379 161.926C258.957 161.926 257.984 162.531 257.461 163.742V173H255.293V160.32H257.344ZM284.18 173C284.055 172.75 283.953 172.305 283.875 171.664C282.867 172.711 281.664 173.234 280.266 173.234C279.016 173.234 277.988 172.883 277.184 172.18C276.387 171.469 275.988 170.57 275.988 169.484C275.988 168.164 276.488 167.141 277.488 166.414C278.496 165.68 279.91 165.312 281.73 165.312H283.84V164.316C283.84 163.559 283.613 162.957 283.16 162.512C282.707 162.059 282.039 161.832 281.156 161.832C280.383 161.832 279.734 162.027 279.211 162.418C278.688 162.809 278.426 163.281 278.426 163.836H276.246C276.246 163.203 276.469 162.594 276.914 162.008C277.367 161.414 277.977 160.945 278.742 160.602C279.516 160.258 280.363 160.086 281.285 160.086C282.746 160.086 283.891 160.453 284.719 161.188C285.547 161.914 285.977 162.918 286.008 164.199V170.035C286.008 171.199 286.156 172.125 286.453 172.812V173H284.18ZM280.582 171.348C281.262 171.348 281.906 171.172 282.516 170.82C283.125 170.469 283.566 170.012 283.84 169.449V166.848H282.141C279.484 166.848 278.156 167.625 278.156 169.18C278.156 169.859 278.383 170.391 278.836 170.773C279.289 171.156 279.871 171.348 280.582 171.348ZM296.789 169.637C296.789 169.051 296.566 168.598 296.121 168.277C295.684 167.949 294.914 167.668 293.812 167.434C292.719 167.199 291.848 166.918 291.199 166.59C290.559 166.262 290.082 165.871 289.77 165.418C289.465 164.965 289.312 164.426 289.312 163.801C289.312 162.762 289.75 161.883 290.625 161.164C291.508 160.445 292.633 160.086 294 160.086C295.438 160.086 296.602 160.457 297.492 161.199C298.391 161.941 298.84 162.891 298.84 164.047H296.66C296.66 163.453 296.406 162.941 295.898 162.512C295.398 162.082 294.766 161.867 294 161.867C293.211 161.867 292.594 162.039 292.148 162.383C291.703 162.727 291.48 163.176 291.48 163.73C291.48 164.254 291.688 164.648 292.102 164.914C292.516 165.18 293.262 165.434 294.34 165.676C295.426 165.918 296.305 166.207 296.977 166.543C297.648 166.879 298.145 167.285 298.465 167.762C298.793 168.23 298.957 168.805 298.957 169.484C298.957 170.617 298.504 171.527 297.598 172.215C296.691 172.895 295.516 173.234 294.07 173.234C293.055 173.234 292.156 173.055 291.375 172.695C290.594 172.336 289.98 171.836 289.535 171.195C289.098 170.547 288.879 169.848 288.879 169.098H291.047C291.086 169.824 291.375 170.402 291.914 170.832C292.461 171.254 293.18 171.465 294.07 171.465C294.891 171.465 295.547 171.301 296.039 170.973C296.539 170.637 296.789 170.191 296.789 169.637ZM309.609 171.746C308.766 172.738 307.527 173.234 305.895 173.234C304.543 173.234 303.512 172.844 302.801 172.062C302.098 171.273 301.742 170.109 301.734 168.57V160.32H303.902V168.512C303.902 170.434 304.684 171.395 306.246 171.395C307.902 171.395 309.004 170.777 309.551 169.543V160.32H311.719V173H309.656L309.609 171.746ZM315.07 171.863C315.07 171.488 315.18 171.176 315.398 170.926C315.625 170.676 315.961 170.551 316.406 170.551C316.852 170.551 317.188 170.676 317.414 170.926C317.648 171.176 317.766 171.488 317.766 171.863C317.766 172.223 317.648 172.523 317.414 172.766C317.188 173.008 316.852 173.129 316.406 173.129C315.961 173.129 315.625 173.008 315.398 172.766C315.18 172.523 315.07 172.223 315.07 171.863ZM323.52 161.855C324.48 160.676 325.73 160.086 327.27 160.086C329.949 160.086 331.301 161.598 331.324 164.621V173H329.156V164.609C329.148 163.695 328.938 163.02 328.523 162.582C328.117 162.145 327.48 161.926 326.613 161.926C325.91 161.926 325.293 162.113 324.762 162.488C324.23 162.863 323.816 163.355 323.52 163.965V173H321.352V155H323.52V161.855Z" fill="black"/>
<rect x="13.5" y="139.5" width="103" height="51" stroke="black" stroke-width="3"/>
<path d="M32.6159 173V155.938H38.194C40.0456 155.938 41.4362 156.32 42.3659 157.086C43.3034 157.852 43.7721 158.984 43.7721 160.484C43.7721 161.281 43.5456 161.988 43.0924 162.605C42.6393 163.215 42.0221 163.688 41.2409 164.023C42.1628 164.281 42.8893 164.773 43.4206 165.5C43.9596 166.219 44.2292 167.078 44.2292 168.078C44.2292 169.609 43.7331 170.812 42.7409 171.688C41.7487 172.562 40.3463 173 38.5338 173H32.6159ZM34.8659 165.02V171.16H38.5807C39.6276 171.16 40.4518 170.891 41.0534 170.352C41.6628 169.805 41.9674 169.055 41.9674 168.102C41.9674 166.047 40.8503 165.02 38.6159 165.02H34.8659ZM34.8659 163.215H38.2643C39.2487 163.215 40.0338 162.969 40.6198 162.477C41.2135 161.984 41.5104 161.316 41.5104 160.473C41.5104 159.535 41.237 158.855 40.6901 158.434C40.1432 158.004 39.3112 157.789 38.194 157.789H34.8659V163.215ZM46.6549 166.543C46.6549 165.301 46.8971 164.184 47.3815 163.191C47.8737 162.199 48.5534 161.434 49.4206 160.895C50.2956 160.355 51.2917 160.086 52.4088 160.086C54.1354 160.086 55.5299 160.684 56.5924 161.879C57.6628 163.074 58.1979 164.664 58.1979 166.648V166.801C58.1979 168.035 57.9596 169.145 57.4831 170.129C57.0143 171.105 56.3385 171.867 55.4557 172.414C54.5807 172.961 53.5729 173.234 52.4323 173.234C50.7135 173.234 49.319 172.637 48.2487 171.441C47.1862 170.246 46.6549 168.664 46.6549 166.695V166.543ZM48.8346 166.801C48.8346 168.207 49.1588 169.336 49.8073 170.188C50.4635 171.039 51.3385 171.465 52.4323 171.465C53.5338 171.465 54.4088 171.035 55.0573 170.176C55.7057 169.309 56.0299 168.098 56.0299 166.543C56.0299 165.152 55.6979 164.027 55.0338 163.168C54.3776 162.301 53.5026 161.867 52.4088 161.867C51.3385 161.867 50.4753 162.293 49.819 163.145C49.1628 163.996 48.8346 165.215 48.8346 166.801ZM60.3893 166.555C60.3893 164.609 60.8503 163.047 61.7721 161.867C62.694 160.68 63.901 160.086 65.3932 160.086C66.8776 160.086 68.0534 160.594 68.9206 161.609V155H71.0885V173H69.0963L68.9909 171.641C68.1237 172.703 66.9167 173.234 65.3698 173.234C63.901 173.234 62.7018 172.633 61.7721 171.43C60.8503 170.227 60.3893 168.656 60.3893 166.719V166.555ZM62.5573 166.801C62.5573 168.238 62.8542 169.363 63.4479 170.176C64.0417 170.988 64.862 171.395 65.9088 171.395C67.2838 171.395 68.2878 170.777 68.9206 169.543V163.719C68.2721 162.523 67.276 161.926 65.9323 161.926C64.8698 161.926 64.0417 162.336 63.4479 163.156C62.8542 163.977 62.5573 165.191 62.5573 166.801ZM78.612 169.824L81.5651 160.32H83.8854L78.7878 174.957C77.9987 177.066 76.7448 178.121 75.026 178.121L74.6159 178.086L73.8073 177.934V176.176L74.3932 176.223C75.1276 176.223 75.6979 176.074 76.1042 175.777C76.5182 175.48 76.8581 174.938 77.1237 174.148L77.6042 172.859L73.0807 160.32H75.4479L78.612 169.824ZM84.612 171.863C84.612 171.488 84.7213 171.176 84.9401 170.926C85.1667 170.676 85.5026 170.551 85.9479 170.551C86.3932 170.551 86.7292 170.676 86.9557 170.926C87.1901 171.176 87.3073 171.488 87.3073 171.863C87.3073 172.223 87.1901 172.523 86.9557 172.766C86.7292 173.008 86.3932 173.129 85.9479 173.129C85.5026 173.129 85.1667 173.008 84.9401 172.766C84.7213 172.523 84.612 172.223 84.612 171.863ZM95.9792 171.465C96.7526 171.465 97.4284 171.23 98.0065 170.762C98.5846 170.293 98.9049 169.707 98.9674 169.004H101.018C100.979 169.73 100.729 170.422 100.268 171.078C99.8073 171.734 99.1901 172.258 98.4167 172.648C97.651 173.039 96.8385 173.234 95.9792 173.234C94.2526 173.234 92.8776 172.66 91.8542 171.512C90.8385 170.355 90.3307 168.777 90.3307 166.777V166.414C90.3307 165.18 90.5573 164.082 91.0104 163.121C91.4635 162.16 92.112 161.414 92.9557 160.883C93.8073 160.352 94.8112 160.086 95.9674 160.086C97.3893 160.086 98.569 160.512 99.5065 161.363C100.452 162.215 100.956 163.32 101.018 164.68H98.9674C98.9049 163.859 98.5924 163.188 98.0299 162.664C97.4753 162.133 96.7878 161.867 95.9674 161.867C94.8659 161.867 94.0104 162.266 93.401 163.062C92.7995 163.852 92.4987 164.996 92.4987 166.496V166.906C92.4987 168.367 92.7995 169.492 93.401 170.281C94.0026 171.07 94.862 171.465 95.9792 171.465Z" fill="black"/>
<rect x="181.5" y="241.5" width="170" height="51" stroke="black" stroke-width="3"/>
<path d="M216.34 272.762C215.762 273.59 214.953 274.211 213.914 274.625C212.883 275.031 211.68 275.234 210.305 275.234C208.914 275.234 207.68 274.91 206.602 274.262C205.523 273.605 204.688 272.676 204.094 271.473C203.508 270.27 203.207 268.875 203.191 267.289V265.801C203.191 263.23 203.789 261.238 204.984 259.824C206.188 258.41 207.875 257.703 210.047 257.703C211.828 257.703 213.262 258.16 214.348 259.074C215.434 259.98 216.098 261.27 216.34 262.941H214.09C213.668 260.684 212.324 259.555 210.059 259.555C208.551 259.555 207.406 260.086 206.625 261.148C205.852 262.203 205.461 263.734 205.453 265.742V267.137C205.453 269.051 205.891 270.574 206.766 271.707C207.641 272.832 208.824 273.395 210.316 273.395C211.16 273.395 211.898 273.301 212.531 273.113C213.164 272.926 213.688 272.609 214.102 272.164V268.332H210.152V266.504H216.34V272.762ZM227.59 275C227.465 274.75 227.363 274.305 227.285 273.664C226.277 274.711 225.074 275.234 223.676 275.234C222.426 275.234 221.398 274.883 220.594 274.18C219.797 273.469 219.398 272.57 219.398 271.484C219.398 270.164 219.898 269.141 220.898 268.414C221.906 267.68 223.32 267.312 225.141 267.312H227.25V266.316C227.25 265.559 227.023 264.957 226.57 264.512C226.117 264.059 225.449 263.832 224.566 263.832C223.793 263.832 223.145 264.027 222.621 264.418C222.098 264.809 221.836 265.281 221.836 265.836H219.656C219.656 265.203 219.879 264.594 220.324 264.008C220.777 263.414 221.387 262.945 222.152 262.602C222.926 262.258 223.773 262.086 224.695 262.086C226.156 262.086 227.301 262.453 228.129 263.188C228.957 263.914 229.387 264.918 229.418 266.199V272.035C229.418 273.199 229.566 274.125 229.863 274.812V275H227.59ZM223.992 273.348C224.672 273.348 225.316 273.172 225.926 272.82C226.535 272.469 226.977 272.012 227.25 271.449V268.848H225.551C222.895 268.848 221.566 269.625 221.566 271.18C221.566 271.859 221.793 272.391 222.246 272.773C222.699 273.156 223.281 273.348 223.992 273.348ZM234.855 262.32L234.914 263.727C235.844 262.633 237.098 262.086 238.676 262.086C240.449 262.086 241.656 262.766 242.297 264.125C242.719 263.516 243.266 263.023 243.938 262.648C244.617 262.273 245.418 262.086 246.34 262.086C249.121 262.086 250.535 263.559 250.582 266.504V275H248.414V266.633C248.414 265.727 248.207 265.051 247.793 264.605C247.379 264.152 246.684 263.926 245.707 263.926C244.902 263.926 244.234 264.168 243.703 264.652C243.172 265.129 242.863 265.773 242.777 266.586V275H240.598V266.691C240.598 264.848 239.695 263.926 237.891 263.926C236.469 263.926 235.496 264.531 234.973 265.742V275H232.805V262.32H234.855ZM259.125 275.234C257.406 275.234 256.008 274.672 254.93 273.547C253.852 272.414 253.312 270.902 253.312 269.012V268.613C253.312 267.355 253.551 266.234 254.027 265.25C254.512 264.258 255.184 263.484 256.043 262.93C256.91 262.367 257.848 262.086 258.855 262.086C260.504 262.086 261.785 262.629 262.699 263.715C263.613 264.801 264.07 266.355 264.07 268.379V269.281H255.48C255.512 270.531 255.875 271.543 256.57 272.316C257.273 273.082 258.164 273.465 259.242 273.465C260.008 273.465 260.656 273.309 261.188 272.996C261.719 272.684 262.184 272.27 262.582 271.754L263.906 272.785C262.844 274.418 261.25 275.234 259.125 275.234ZM258.855 263.867C257.98 263.867 257.246 264.188 256.652 264.828C256.059 265.461 255.691 266.352 255.551 267.5H261.902V267.336C261.84 266.234 261.543 265.383 261.012 264.781C260.48 264.172 259.762 263.867 258.855 263.867ZM268.945 275H266.777V257H268.945V275ZM271.852 268.543C271.852 267.301 272.094 266.184 272.578 265.191C273.07 264.199 273.75 263.434 274.617 262.895C275.492 262.355 276.488 262.086 277.605 262.086C279.332 262.086 280.727 262.684 281.789 263.879C282.859 265.074 283.395 266.664 283.395 268.648V268.801C283.395 270.035 283.156 271.145 282.68 272.129C282.211 273.105 281.535 273.867 280.652 274.414C279.777 274.961 278.77 275.234 277.629 275.234C275.91 275.234 274.516 274.637 273.445 273.441C272.383 272.246 271.852 270.664 271.852 268.695V268.543ZM274.031 268.801C274.031 270.207 274.355 271.336 275.004 272.188C275.66 273.039 276.535 273.465 277.629 273.465C278.73 273.465 279.605 273.035 280.254 272.176C280.902 271.309 281.227 270.098 281.227 268.543C281.227 267.152 280.895 266.027 280.23 265.168C279.574 264.301 278.699 263.867 277.605 263.867C276.535 263.867 275.672 264.293 275.016 265.145C274.359 265.996 274.031 267.215 274.031 268.801ZM285.598 268.555C285.598 266.578 286.055 265.008 286.969 263.844C287.883 262.672 289.094 262.086 290.602 262.086C292.148 262.086 293.355 262.633 294.223 263.727L294.328 262.32H296.309V274.695C296.309 276.336 295.82 277.629 294.844 278.574C293.875 279.52 292.57 279.992 290.93 279.992C290.016 279.992 289.121 279.797 288.246 279.406C287.371 279.016 286.703 278.48 286.242 277.801L287.367 276.5C288.297 277.648 289.434 278.223 290.777 278.223C291.832 278.223 292.652 277.926 293.238 277.332C293.832 276.738 294.129 275.902 294.129 274.824V273.734C293.262 274.734 292.078 275.234 290.578 275.234C289.094 275.234 287.891 274.637 286.969 273.441C286.055 272.246 285.598 270.617 285.598 268.555ZM287.777 268.801C287.777 270.23 288.07 271.355 288.656 272.176C289.242 272.988 290.062 273.395 291.117 273.395C292.484 273.395 293.488 272.773 294.129 271.531V265.742C293.465 264.531 292.469 263.926 291.141 263.926C290.086 263.926 289.262 264.336 288.668 265.156C288.074 265.977 287.777 267.191 287.777 268.801ZM301.945 275H299.777V262.32H301.945V275ZM299.602 258.957C299.602 258.605 299.707 258.309 299.918 258.066C300.137 257.824 300.457 257.703 300.879 257.703C301.301 257.703 301.621 257.824 301.84 258.066C302.059 258.309 302.168 258.605 302.168 258.957C302.168 259.309 302.059 259.602 301.84 259.836C301.621 260.07 301.301 260.188 300.879 260.188C300.457 260.188 300.137 260.07 299.918 259.836C299.707 259.602 299.602 259.309 299.602 258.957ZM310.512 273.465C311.285 273.465 311.961 273.23 312.539 272.762C313.117 272.293 313.438 271.707 313.5 271.004H315.551C315.512 271.73 315.262 272.422 314.801 273.078C314.34 273.734 313.723 274.258 312.949 274.648C312.184 275.039 311.371 275.234 310.512 275.234C308.785 275.234 307.41 274.66 306.387 273.512C305.371 272.355 304.863 270.777 304.863 268.777V268.414C304.863 267.18 305.09 266.082 305.543 265.121C305.996 264.16 306.645 263.414 307.488 262.883C308.34 262.352 309.344 262.086 310.5 262.086C311.922 262.086 313.102 262.512 314.039 263.363C314.984 264.215 315.488 265.32 315.551 266.68H313.5C313.438 265.859 313.125 265.188 312.562 264.664C312.008 264.133 311.32 263.867 310.5 263.867C309.398 263.867 308.543 264.266 307.934 265.062C307.332 265.852 307.031 266.996 307.031 268.496V268.906C307.031 270.367 307.332 271.492 307.934 272.281C308.535 273.07 309.395 273.465 310.512 273.465ZM318.035 273.863C318.035 273.488 318.145 273.176 318.363 272.926C318.59 272.676 318.926 272.551 319.371 272.551C319.816 272.551 320.152 272.676 320.379 272.926C320.613 273.176 320.73 273.488 320.73 273.863C320.73 274.223 320.613 274.523 320.379 274.766C320.152 275.008 319.816 275.129 319.371 275.129C318.926 275.129 318.59 275.008 318.363 274.766C318.145 274.523 318.035 274.223 318.035 273.863ZM329.402 273.465C330.176 273.465 330.852 273.23 331.43 272.762C332.008 272.293 332.328 271.707 332.391 271.004H334.441C334.402 271.73 334.152 272.422 333.691 273.078C333.23 273.734 332.613 274.258 331.84 274.648C331.074 275.039 330.262 275.234 329.402 275.234C327.676 275.234 326.301 274.66 325.277 273.512C324.262 272.355 323.754 270.777 323.754 268.777V268.414C323.754 267.18 323.98 266.082 324.434 265.121C324.887 264.16 325.535 263.414 326.379 262.883C327.23 262.352 328.234 262.086 329.391 262.086C330.812 262.086 331.992 262.512 332.93 263.363C333.875 264.215 334.379 265.32 334.441 266.68H332.391C332.328 265.859 332.016 265.188 331.453 264.664C330.898 264.133 330.211 263.867 329.391 263.867C328.289 263.867 327.434 264.266 326.824 265.062C326.223 265.852 325.922 266.996 325.922 268.496V268.906C325.922 270.367 326.223 271.492 326.824 272.281C327.426 273.07 328.285 273.465 329.402 273.465Z" fill="black"/>
<rect x="416.5" y="140.5" width="101" height="51" stroke="black" stroke-width="3"/>
<path d="M461.699 156.938V168.539C461.691 170.148 461.183 171.465 460.175 172.488C459.175 173.512 457.816 174.086 456.097 174.211L455.499 174.234C453.632 174.234 452.144 173.73 451.035 172.723C449.925 171.715 449.363 170.328 449.347 168.562V156.938H451.574V168.492C451.574 169.727 451.913 170.688 452.593 171.375C453.273 172.055 454.242 172.395 455.499 172.395C456.773 172.395 457.745 172.055 458.417 171.375C459.097 170.695 459.437 169.738 459.437 168.504V156.938H461.699ZM467.663 174H465.413V156.938H467.663V174ZM471.495 172.863C471.495 172.488 471.605 172.176 471.824 171.926C472.05 171.676 472.386 171.551 472.831 171.551C473.277 171.551 473.613 171.676 473.839 171.926C474.074 172.176 474.191 172.488 474.191 172.863C474.191 173.223 474.074 173.523 473.839 173.766C473.613 174.008 473.277 174.129 472.831 174.129C472.386 174.129 472.05 174.008 471.824 173.766C471.605 173.523 471.495 173.223 471.495 172.863ZM482.863 172.465C483.636 172.465 484.312 172.23 484.89 171.762C485.468 171.293 485.788 170.707 485.851 170.004H487.902C487.863 170.73 487.613 171.422 487.152 172.078C486.691 172.734 486.074 173.258 485.3 173.648C484.535 174.039 483.722 174.234 482.863 174.234C481.136 174.234 479.761 173.66 478.738 172.512C477.722 171.355 477.214 169.777 477.214 167.777V167.414C477.214 166.18 477.441 165.082 477.894 164.121C478.347 163.16 478.995 162.414 479.839 161.883C480.691 161.352 481.695 161.086 482.851 161.086C484.273 161.086 485.452 161.512 486.39 162.363C487.335 163.215 487.839 164.32 487.902 165.68H485.851C485.788 164.859 485.476 164.188 484.913 163.664C484.359 163.133 483.671 162.867 482.851 162.867C481.749 162.867 480.894 163.266 480.285 164.062C479.683 164.852 479.382 165.996 479.382 167.496V167.906C479.382 169.367 479.683 170.492 480.285 171.281C480.886 172.07 481.745 172.465 482.863 172.465Z" fill="black"/>
<path d="M180 165L165 156.34V173.66L180 165ZM118 166.5H166.5V163.5H118V166.5Z" fill="black"/>
<path d="M268 192L259.34 207L276.66 207L268 192ZM266.5 205.5L266.5 240L269.5 240L269.5 205.5L266.5 205.5Z" fill="black"/>
<path d="M268 67L259.34 82L276.66 82L268 67ZM266.5 80.5L266.5 138L269.5 138L269.5 80.5L266.5 80.5Z" fill="black"/>
<path d="M353 165L368 173.66V156.34L353 165ZM366.5 166.5H415V163.5H366.5V166.5Z" fill="black"/>
</svg>
