<svg width="425" height="777" viewBox="0 0 425 777" fill="none" xmlns="http://www.w3.org/2000/svg">
<rect width="425" height="777" fill="white"/>
<path d="M80.1826 14.5H235.183V51.5H80.1826V14.5Z" stroke="black" stroke-width="3"/>
<path d="M123.378 35.166C123.378 33.707 123.724 32.5352 124.415 31.6504C125.106 30.7598 126.012 30.3145 127.131 30.3145C128.244 30.3145 129.126 30.6953 129.776 31.457V26.5H131.402V40H129.908L129.829 38.9805C129.179 39.7773 128.273 40.1758 127.113 40.1758C126.012 40.1758 125.112 39.7246 124.415 38.8223C123.724 37.9199 123.378 36.7422 123.378 35.2891V35.166ZM125.004 35.3506C125.004 36.4287 125.227 37.2725 125.672 37.8818C126.117 38.4912 126.732 38.7959 127.518 38.7959C128.549 38.7959 129.302 38.333 129.776 37.4072V33.0391C129.29 32.1426 128.543 31.6943 127.535 31.6943C126.738 31.6943 126.117 32.002 125.672 32.6172C125.227 33.2324 125.004 34.1436 125.004 35.3506ZM138.53 31.9492C138.284 31.9082 138.018 31.8877 137.73 31.8877C136.664 31.8877 135.94 32.3418 135.56 33.25V40H133.934V30.4902H135.516L135.542 31.5889C136.075 30.7393 136.831 30.3145 137.81 30.3145C138.126 30.3145 138.366 30.3555 138.53 30.4375V31.9492ZM145.553 40C145.459 39.8125 145.383 39.4785 145.324 38.998C144.568 39.7832 143.666 40.1758 142.617 40.1758C141.68 40.1758 140.909 39.9121 140.306 39.3848C139.708 38.8516 139.409 38.1777 139.409 37.3633C139.409 36.373 139.784 35.6055 140.534 35.0605C141.29 34.5098 142.351 34.2344 143.716 34.2344H145.298V33.4873C145.298 32.9189 145.128 32.4678 144.788 32.1338C144.448 31.7939 143.947 31.624 143.285 31.624C142.705 31.624 142.219 31.7705 141.826 32.0635C141.434 32.3564 141.237 32.7109 141.237 33.127H139.603C139.603 32.6523 139.77 32.1953 140.104 31.7559C140.443 31.3105 140.9 30.959 141.475 30.7012C142.055 30.4434 142.69 30.3145 143.382 30.3145C144.478 30.3145 145.336 30.5898 145.957 31.1406C146.578 31.6855 146.9 32.4385 146.924 33.3994V37.7764C146.924 38.6494 147.035 39.3438 147.258 39.8594V40H145.553ZM142.854 38.7607C143.364 38.7607 143.848 38.6289 144.305 38.3652C144.762 38.1016 145.093 37.7588 145.298 37.3369V35.3857H144.023C142.031 35.3857 141.035 35.9688 141.035 37.1348C141.035 37.6445 141.205 38.043 141.545 38.3301C141.885 38.6172 142.321 38.7607 142.854 38.7607ZM157.893 37.7588L159.721 30.4902H161.347L158.578 40H157.26L154.948 32.793L152.698 40H151.38L148.62 30.4902H150.237L152.109 37.6094L154.324 30.4902H155.634L157.893 37.7588ZM169.863 41.3271H161.812V40H169.863V41.3271ZM172.896 40H171.27V26.5H172.896V40ZM177.272 40H175.646V30.4902H177.272V40ZM175.515 27.9678C175.515 27.7041 175.594 27.4814 175.752 27.2998C175.916 27.1182 176.156 27.0273 176.473 27.0273C176.789 27.0273 177.029 27.1182 177.193 27.2998C177.357 27.4814 177.439 27.7041 177.439 27.9678C177.439 28.2314 177.357 28.4512 177.193 28.627C177.029 28.8027 176.789 28.8906 176.473 28.8906C176.156 28.8906 175.916 28.8027 175.752 28.627C175.594 28.4512 175.515 28.2314 175.515 27.9678ZM185.42 37.4775C185.42 37.0381 185.253 36.6982 184.919 36.458C184.591 36.2119 184.014 36.001 183.188 35.8252C182.367 35.6494 181.714 35.4385 181.228 35.1924C180.747 34.9463 180.39 34.6533 180.155 34.3135C179.927 33.9736 179.812 33.5693 179.812 33.1006C179.812 32.3213 180.141 31.6621 180.797 31.123C181.459 30.584 182.303 30.3145 183.328 30.3145C184.406 30.3145 185.279 30.5928 185.947 31.1494C186.621 31.7061 186.958 32.418 186.958 33.2852H185.323C185.323 32.8398 185.133 32.4561 184.752 32.1338C184.377 31.8115 183.902 31.6504 183.328 31.6504C182.736 31.6504 182.273 31.7793 181.939 32.0371C181.605 32.2949 181.438 32.6318 181.438 33.0479C181.438 33.4404 181.594 33.7363 181.904 33.9355C182.215 34.1348 182.774 34.3252 183.583 34.5068C184.397 34.6885 185.057 34.9053 185.561 35.1572C186.064 35.4092 186.437 35.7139 186.677 36.0713C186.923 36.4229 187.046 36.8535 187.046 37.3633C187.046 38.2129 186.706 38.8955 186.026 39.4111C185.347 39.9209 184.465 40.1758 183.381 40.1758C182.619 40.1758 181.945 40.041 181.359 39.7715C180.773 39.502 180.313 39.127 179.979 38.6465C179.651 38.1602 179.487 37.6357 179.487 37.0732H181.113C181.143 37.6182 181.359 38.0518 181.764 38.374C182.174 38.6904 182.713 38.8486 183.381 38.8486C183.996 38.8486 184.488 38.7256 184.857 38.4795C185.232 38.2275 185.42 37.8936 185.42 37.4775ZM191.37 28.1875V30.4902H193.146V31.7471H191.37V37.6445C191.37 38.0254 191.449 38.3125 191.607 38.5059C191.766 38.6934 192.035 38.7871 192.416 38.7871C192.604 38.7871 192.861 38.752 193.189 38.6816V40C192.762 40.1172 192.346 40.1758 191.941 40.1758C191.215 40.1758 190.667 39.9561 190.298 39.5166C189.929 39.0771 189.744 38.4531 189.744 37.6445V31.7471H188.013V30.4902H189.744V28.1875H191.37Z" fill="black"/>
<path d="M53.4385 125.5L85.7634 75.5H250.983L219.878 125.5H53.4385Z" stroke="black" stroke-width="3"/>
<path d="M96.9697 93.3485C97.5498 93.3485 98.0566 93.1727 98.4902 92.8212C98.9238 92.4696 99.1641 92.0302 99.2109 91.5028H100.749C100.72 92.0477 100.532 92.5663 100.187 93.0585C99.8408 93.5507 99.3779 93.9432 98.7979 94.2362C98.2236 94.5292 97.6143 94.6757 96.9697 94.6757C95.6748 94.6757 94.6436 94.245 93.876 93.3837C93.1143 92.5165 92.7334 91.3329 92.7334 89.8329V89.5604C92.7334 88.6346 92.9033 87.8114 93.2432 87.0907C93.583 86.37 94.0693 85.8104 94.7021 85.412C95.3408 85.0135 96.0938 84.8143 96.9609 84.8143C98.0273 84.8143 98.9121 85.1337 99.6152 85.7723C100.324 86.411 100.702 87.2401 100.749 88.2596H99.2109C99.1641 87.6444 98.9297 87.1405 98.5078 86.7479C98.0918 86.3495 97.5762 86.1503 96.9609 86.1503C96.1348 86.1503 95.4932 86.4491 95.0361 87.0468C94.585 87.6385 94.3594 88.4969 94.3594 89.6219V89.9296C94.3594 91.0253 94.585 91.869 95.0361 92.4608C95.4873 93.0526 96.1318 93.3485 96.9697 93.3485ZM108.448 93.5594C107.815 94.3036 106.887 94.6757 105.662 94.6757C104.648 94.6757 103.875 94.3827 103.342 93.7968C102.814 93.205 102.548 92.3319 102.542 91.1776V84.9901H104.168V91.1337C104.168 92.5751 104.754 93.2958 105.926 93.2958C107.168 93.2958 107.994 92.8329 108.404 91.9071V84.9901H110.03V94.4999H108.483L108.448 93.5594ZM117.105 86.4491C116.859 86.4081 116.593 86.3876 116.306 86.3876C115.239 86.3876 114.516 86.8417 114.135 87.7499V94.4999H112.509V84.9901H114.091L114.117 86.0887C114.65 85.2391 115.406 84.8143 116.385 84.8143C116.701 84.8143 116.941 84.8553 117.105 84.9374V86.4491ZM124.146 91.9774C124.146 91.538 123.979 91.1981 123.645 90.9579C123.316 90.7118 122.739 90.5009 121.913 90.3251C121.093 90.1493 120.439 89.9384 119.953 89.6923C119.473 89.4462 119.115 89.1532 118.881 88.8134C118.652 88.4735 118.538 88.0692 118.538 87.6005C118.538 86.8212 118.866 86.162 119.522 85.6229C120.185 85.0839 121.028 84.8143 122.054 84.8143C123.132 84.8143 124.005 85.0927 124.673 85.6493C125.347 86.2059 125.684 86.9178 125.684 87.785H124.049C124.049 87.3397 123.858 86.9559 123.478 86.6337C123.103 86.3114 122.628 86.1503 122.054 86.1503C121.462 86.1503 120.999 86.2792 120.665 86.537C120.331 86.7948 120.164 87.1317 120.164 87.5477C120.164 87.9403 120.319 88.2362 120.63 88.4354C120.94 88.6346 121.5 88.8251 122.309 89.0067C123.123 89.1884 123.782 89.4052 124.286 89.6571C124.79 89.9091 125.162 90.2137 125.402 90.5712C125.648 90.9227 125.771 91.3534 125.771 91.8632C125.771 92.7128 125.432 93.3954 124.752 93.911C124.072 94.4208 123.19 94.6757 122.106 94.6757C121.345 94.6757 120.671 94.5409 120.085 94.2714C119.499 94.0018 119.039 93.6268 118.705 93.1464C118.377 92.66 118.213 92.1356 118.213 91.5731H119.839C119.868 92.118 120.085 92.5516 120.489 92.8739C120.899 93.1903 121.438 93.3485 122.106 93.3485C122.722 93.3485 123.214 93.2255 123.583 92.9794C123.958 92.7274 124.146 92.3934 124.146 91.9774ZM127.459 89.6571C127.459 88.7255 127.641 87.8876 128.004 87.1434C128.373 86.3993 128.883 85.8251 129.533 85.4208C130.189 85.0165 130.937 84.8143 131.774 84.8143C133.069 84.8143 134.115 85.2626 134.912 86.1591C135.715 87.0555 136.116 88.2479 136.116 89.7362V89.8505C136.116 90.7762 135.938 91.6083 135.58 92.3466C135.229 93.079 134.722 93.6503 134.06 94.0604C133.403 94.4706 132.647 94.6757 131.792 94.6757C130.503 94.6757 129.457 94.2274 128.654 93.3309C127.857 92.4344 127.459 91.2479 127.459 89.7714V89.6571ZM129.094 89.8505C129.094 90.9052 129.337 91.7518 129.823 92.3905C130.315 93.0292 130.972 93.3485 131.792 93.3485C132.618 93.3485 133.274 93.0262 133.761 92.3817C134.247 91.7313 134.49 90.8231 134.49 89.6571C134.49 88.6141 134.241 87.7704 133.743 87.1259C133.251 86.4755 132.595 86.1503 131.774 86.1503C130.972 86.1503 130.324 86.4696 129.832 87.1083C129.34 87.7469 129.094 88.661 129.094 89.8505ZM142.752 86.4491C142.506 86.4081 142.239 86.3876 141.952 86.3876C140.886 86.3876 140.162 86.8417 139.781 87.7499V94.4999H138.155V84.9901H139.737L139.764 86.0887C140.297 85.2391 141.053 84.8143 142.031 84.8143C142.348 84.8143 142.588 84.8553 142.752 84.9374V86.4491ZM143.112 97.0487L142.189 96.4159C142.74 95.6483 143.027 94.8573 143.051 94.0428V92.5751H144.642V93.8495C144.642 94.4413 144.495 95.0331 144.202 95.6249C143.915 96.2167 143.552 96.6913 143.112 97.0487ZM152.833 85.8602L150.179 85.0692L150.583 83.7421L153.237 84.7264L153.158 81.703H154.503L154.415 84.7704L157.025 83.8036L157.43 85.1395L154.731 85.9393L156.472 88.3212L155.382 89.1473L153.747 86.6161L152.165 89.0858L151.066 88.286L152.833 85.8602ZM166.948 89.8505C166.948 91.2977 166.617 92.4637 165.955 93.3485C165.293 94.2333 164.396 94.6757 163.266 94.6757C162.111 94.6757 161.203 94.3094 160.541 93.577V98.1561H158.915V84.9901H160.4L160.479 86.0448C161.142 85.2245 162.062 84.8143 163.239 84.8143C164.382 84.8143 165.284 85.245 165.946 86.1063C166.614 86.9677 166.948 88.1659 166.948 89.701V89.8505ZM165.322 89.6659C165.322 88.5936 165.094 87.7469 164.637 87.1259C164.18 86.5048 163.553 86.1942 162.756 86.1942C161.771 86.1942 161.033 86.6307 160.541 87.5038V92.0477C161.027 92.9149 161.771 93.3485 162.773 93.3485C163.553 93.3485 164.171 93.0409 164.628 92.4257C165.091 91.8046 165.322 90.8846 165.322 89.6659ZM174.894 94.4999C174.8 94.3124 174.724 93.9784 174.665 93.4979C173.909 94.2831 173.007 94.6757 171.958 94.6757C171.021 94.6757 170.25 94.412 169.646 93.8846C169.049 93.3514 168.75 92.6776 168.75 91.8632C168.75 90.8729 169.125 90.1053 169.875 89.5604C170.631 89.0096 171.691 88.7343 173.057 88.7343H174.639V87.9872C174.639 87.4188 174.469 86.9677 174.129 86.6337C173.789 86.2938 173.288 86.1239 172.626 86.1239C172.046 86.1239 171.56 86.2704 171.167 86.5634C170.774 86.8563 170.578 87.2108 170.578 87.6268H168.943C168.943 87.1522 169.11 86.6952 169.444 86.2557C169.784 85.8104 170.241 85.4589 170.815 85.201C171.396 84.9432 172.031 84.8143 172.723 84.8143C173.818 84.8143 174.677 85.0897 175.298 85.6405C175.919 86.1854 176.241 86.9384 176.265 87.8993V92.2762C176.265 93.1493 176.376 93.8436 176.599 94.3593V94.4999H174.894ZM172.195 93.2606C172.705 93.2606 173.188 93.1288 173.646 92.8651C174.103 92.6014 174.434 92.2587 174.639 91.8368V89.8856H173.364C171.372 89.8856 170.376 90.4686 170.376 91.6346C170.376 92.1444 170.546 92.5428 170.886 92.83C171.226 93.1171 171.662 93.2606 172.195 93.2606ZM183.41 86.4491C183.164 86.4081 182.897 86.3876 182.61 86.3876C181.544 86.3876 180.82 86.8417 180.439 87.7499V94.4999H178.813V84.9901H180.396L180.422 86.0887C180.955 85.2391 181.711 84.8143 182.689 84.8143C183.006 84.8143 183.246 84.8553 183.41 84.9374V86.4491ZM190.433 94.4999C190.339 94.3124 190.263 93.9784 190.204 93.4979C189.448 94.2831 188.546 94.6757 187.497 94.6757C186.56 94.6757 185.789 94.412 185.186 93.8846C184.588 93.3514 184.289 92.6776 184.289 91.8632C184.289 90.8729 184.664 90.1053 185.414 89.5604C186.17 89.0096 187.23 88.7343 188.596 88.7343H190.178V87.9872C190.178 87.4188 190.008 86.9677 189.668 86.6337C189.328 86.2938 188.827 86.1239 188.165 86.1239C187.585 86.1239 187.099 86.2704 186.706 86.5634C186.313 86.8563 186.117 87.2108 186.117 87.6268H184.482C184.482 87.1522 184.649 86.6952 184.983 86.2557C185.323 85.8104 185.78 85.4589 186.354 85.201C186.935 84.9432 187.57 84.8143 188.262 84.8143C189.357 84.8143 190.216 85.0897 190.837 85.6405C191.458 86.1854 191.78 86.9384 191.804 87.8993V92.2762C191.804 93.1493 191.915 93.8436 192.138 94.3593V94.4999H190.433ZM187.734 93.2606C188.244 93.2606 188.728 93.1288 189.185 92.8651C189.642 92.6014 189.973 92.2587 190.178 91.8368V89.8856H188.903C186.911 89.8856 185.915 90.4686 185.915 91.6346C185.915 92.1444 186.085 92.5428 186.425 92.83C186.765 93.1171 187.201 93.2606 187.734 93.2606ZM195.882 84.9901L195.926 86.0448C196.623 85.2245 197.563 84.8143 198.747 84.8143C200.077 84.8143 200.982 85.3241 201.463 86.3436C201.779 85.8866 202.189 85.5175 202.693 85.2362C203.203 84.955 203.804 84.8143 204.495 84.8143C206.581 84.8143 207.642 85.9188 207.677 88.1278V94.4999H206.051V88.2245C206.051 87.5448 205.896 87.038 205.585 86.704C205.274 86.3641 204.753 86.1942 204.021 86.1942C203.417 86.1942 202.916 86.3759 202.518 86.7391C202.119 87.0966 201.888 87.58 201.823 88.1893V94.4999H200.188V88.2684C200.188 86.8856 199.512 86.1942 198.158 86.1942C197.092 86.1942 196.362 86.6483 195.97 87.5565V94.4999H194.344V84.9901H195.882ZM210.085 97.0487L209.162 96.4159C209.713 95.6483 210 94.8573 210.023 94.0428V92.5751H211.614V93.8495C211.614 94.4413 211.468 95.0331 211.175 95.6249C210.888 96.2167 210.524 96.6913 210.085 97.0487ZM120.612 110.85C120.612 112.304 120.278 113.473 119.61 114.357C118.942 115.236 118.046 115.676 116.921 115.676C115.72 115.676 114.791 115.251 114.135 114.401L114.056 115.5H112.562V102H114.188V107.036C114.844 106.222 115.749 105.814 116.903 105.814C118.058 105.814 118.963 106.251 119.619 107.124C120.281 107.997 120.612 109.192 120.612 110.71V110.85ZM118.986 110.666C118.986 109.558 118.772 108.703 118.345 108.099C117.917 107.496 117.302 107.194 116.499 107.194C115.427 107.194 114.656 107.692 114.188 108.688V112.802C114.686 113.798 115.462 114.296 116.517 114.296C117.296 114.296 117.902 113.994 118.336 113.391C118.77 112.787 118.986 111.879 118.986 110.666ZM126.615 115.676C125.326 115.676 124.277 115.254 123.469 114.41C122.66 113.56 122.256 112.427 122.256 111.009V110.71C122.256 109.766 122.435 108.926 122.792 108.187C123.155 107.443 123.659 106.863 124.304 106.447C124.954 106.025 125.657 105.814 126.413 105.814C127.649 105.814 128.61 106.222 129.296 107.036C129.981 107.85 130.324 109.016 130.324 110.534V111.211H123.882C123.905 112.148 124.178 112.907 124.699 113.487C125.227 114.061 125.895 114.349 126.703 114.349C127.277 114.349 127.764 114.231 128.162 113.997C128.561 113.763 128.909 113.452 129.208 113.065L130.201 113.839C129.404 115.063 128.209 115.676 126.615 115.676ZM126.413 107.15C125.757 107.15 125.206 107.391 124.761 107.871C124.315 108.346 124.04 109.014 123.935 109.875H128.698V109.752C128.651 108.926 128.429 108.287 128.03 107.836C127.632 107.379 127.093 107.15 126.413 107.15ZM131.827 110.666C131.827 109.183 132.17 108.006 132.855 107.133C133.541 106.254 134.449 105.814 135.58 105.814C136.74 105.814 137.646 106.224 138.296 107.045L138.375 105.99H139.86V115.271C139.86 116.502 139.494 117.472 138.762 118.181C138.035 118.89 137.057 119.244 135.826 119.244C135.141 119.244 134.47 119.098 133.813 118.805C133.157 118.512 132.656 118.11 132.311 117.6L133.154 116.625C133.852 117.486 134.704 117.917 135.712 117.917C136.503 117.917 137.118 117.694 137.558 117.249C138.003 116.804 138.226 116.177 138.226 115.368V114.551C137.575 115.301 136.688 115.676 135.562 115.676C134.449 115.676 133.547 115.227 132.855 114.331C132.17 113.434 131.827 112.213 131.827 110.666ZM133.462 110.85C133.462 111.923 133.682 112.766 134.121 113.382C134.561 113.991 135.176 114.296 135.967 114.296C136.992 114.296 137.745 113.83 138.226 112.898V108.557C137.728 107.648 136.98 107.194 135.984 107.194C135.193 107.194 134.575 107.502 134.13 108.117C133.685 108.732 133.462 109.643 133.462 110.85ZM144.088 115.5H142.462V105.99H144.088V115.5ZM142.33 103.468C142.33 103.204 142.409 102.981 142.567 102.8C142.731 102.618 142.972 102.527 143.288 102.527C143.604 102.527 143.845 102.618 144.009 102.8C144.173 102.981 144.255 103.204 144.255 103.468C144.255 103.731 144.173 103.951 144.009 104.127C143.845 104.303 143.604 104.391 143.288 104.391C142.972 104.391 142.731 104.303 142.567 104.127C142.409 103.951 142.33 103.731 142.33 103.468ZM148.236 105.99L148.289 107.185C149.016 106.271 149.965 105.814 151.137 105.814C153.146 105.814 154.16 106.948 154.178 109.216V115.5H152.552V109.207C152.546 108.521 152.388 108.015 152.077 107.686C151.772 107.358 151.295 107.194 150.645 107.194C150.117 107.194 149.654 107.335 149.256 107.616C148.857 107.897 148.547 108.266 148.324 108.724V115.5H146.698V105.99H148.236ZM156.577 118.049L155.654 117.416C156.205 116.648 156.492 115.857 156.516 115.043V113.575H158.106V114.849C158.106 115.441 157.96 116.033 157.667 116.625C157.38 117.217 157.017 117.691 156.577 118.049ZM168.574 115.676C167.285 115.676 166.236 115.254 165.428 114.41C164.619 113.56 164.215 112.427 164.215 111.009V110.71C164.215 109.766 164.394 108.926 164.751 108.187C165.114 107.443 165.618 106.863 166.263 106.447C166.913 106.025 167.616 105.814 168.372 105.814C169.608 105.814 170.569 106.222 171.255 107.036C171.94 107.85 172.283 109.016 172.283 110.534V111.211H165.841C165.864 112.148 166.137 112.907 166.658 113.487C167.186 114.061 167.854 114.349 168.662 114.349C169.236 114.349 169.723 114.231 170.121 113.997C170.52 113.763 170.868 113.452 171.167 113.065L172.16 113.839C171.363 115.063 170.168 115.676 168.574 115.676ZM168.372 107.15C167.716 107.15 167.165 107.391 166.72 107.871C166.274 108.346 165.999 109.014 165.894 109.875H170.657V109.752C170.61 108.926 170.388 108.287 169.989 107.836C169.591 107.379 169.052 107.15 168.372 107.15ZM175.711 105.99L175.764 107.185C176.49 106.271 177.439 105.814 178.611 105.814C180.621 105.814 181.635 106.948 181.652 109.216V115.5H180.026V109.207C180.021 108.521 179.862 108.015 179.552 107.686C179.247 107.358 178.77 107.194 178.119 107.194C177.592 107.194 177.129 107.335 176.73 107.616C176.332 107.897 176.021 108.266 175.799 108.724V115.5H174.173V105.99H175.711ZM183.709 110.666C183.709 109.207 184.055 108.035 184.746 107.15C185.438 106.26 186.343 105.814 187.462 105.814C188.575 105.814 189.457 106.195 190.107 106.957V102H191.733V115.5H190.239L190.16 114.48C189.51 115.277 188.604 115.676 187.444 115.676C186.343 115.676 185.443 115.224 184.746 114.322C184.055 113.42 183.709 112.242 183.709 110.789V110.666ZM185.335 110.85C185.335 111.929 185.558 112.772 186.003 113.382C186.448 113.991 187.063 114.296 187.849 114.296C188.88 114.296 189.633 113.833 190.107 112.907V108.539C189.621 107.642 188.874 107.194 187.866 107.194C187.069 107.194 186.448 107.502 186.003 108.117C185.558 108.732 185.335 109.643 185.335 110.85Z" fill="black"/>
<rect x="99.1826" y="148.5" width="108" height="40" stroke="black" stroke-width="3"/>
<path d="M123.553 175.727H121.927V166.218H123.553V175.727ZM121.795 163.695C121.795 163.431 121.874 163.209 122.032 163.027C122.196 162.845 122.437 162.755 122.753 162.755C123.069 162.755 123.31 162.845 123.474 163.027C123.638 163.209 123.72 163.431 123.72 163.695C123.72 163.959 123.638 164.178 123.474 164.354C123.31 164.53 123.069 164.618 122.753 164.618C122.437 164.618 122.196 164.53 122.032 164.354C121.874 164.178 121.795 163.959 121.795 163.695ZM138.063 168.573H130.733V167.158H138.063V168.573ZM138.063 172.22H130.733V170.814H138.063V172.22ZM153.022 171.078C153.022 172.531 152.688 173.7 152.021 174.585C151.353 175.464 150.456 175.903 149.331 175.903C148.13 175.903 147.201 175.478 146.545 174.629L146.466 175.727H144.972V162.227H146.598V167.263C147.254 166.449 148.159 166.042 149.313 166.042C150.468 166.042 151.373 166.478 152.029 167.351C152.691 168.224 153.022 169.42 153.022 170.937V171.078ZM151.396 170.893C151.396 169.786 151.183 168.93 150.755 168.327C150.327 167.723 149.712 167.422 148.909 167.422C147.837 167.422 147.066 167.92 146.598 168.916V173.029C147.096 174.025 147.872 174.523 148.927 174.523C149.706 174.523 150.312 174.221 150.746 173.618C151.18 173.014 151.396 172.106 151.396 170.893ZM159.025 175.903C157.736 175.903 156.688 175.481 155.879 174.637C155.07 173.788 154.666 172.654 154.666 171.236V170.937C154.666 169.994 154.845 169.153 155.202 168.415C155.565 167.671 156.069 167.091 156.714 166.675C157.364 166.253 158.067 166.042 158.823 166.042C160.06 166.042 161.021 166.449 161.706 167.263C162.392 168.078 162.734 169.244 162.734 170.761V171.438H156.292C156.315 172.376 156.588 173.135 157.109 173.715C157.637 174.289 158.305 174.576 159.113 174.576C159.688 174.576 160.174 174.459 160.572 174.224C160.971 173.99 161.319 173.679 161.618 173.293L162.611 174.066C161.814 175.291 160.619 175.903 159.025 175.903ZM158.823 167.378C158.167 167.378 157.616 167.618 157.171 168.098C156.726 168.573 156.45 169.241 156.345 170.102H161.108V169.979C161.062 169.153 160.839 168.514 160.44 168.063C160.042 167.606 159.503 167.378 158.823 167.378ZM164.237 170.893C164.237 169.411 164.58 168.233 165.266 167.36C165.951 166.481 166.859 166.042 167.99 166.042C169.15 166.042 170.056 166.452 170.706 167.272L170.785 166.218H172.271V175.499C172.271 176.729 171.904 177.699 171.172 178.408C170.445 179.117 169.467 179.471 168.236 179.471C167.551 179.471 166.88 179.325 166.224 179.032C165.567 178.739 165.066 178.338 164.721 177.828L165.564 176.852C166.262 177.714 167.114 178.144 168.122 178.144C168.913 178.144 169.528 177.922 169.968 177.476C170.413 177.031 170.636 176.404 170.636 175.595V174.778C169.985 175.528 169.098 175.903 167.973 175.903C166.859 175.903 165.957 175.455 165.266 174.558C164.58 173.662 164.237 172.44 164.237 170.893ZM165.872 171.078C165.872 172.15 166.092 172.994 166.531 173.609C166.971 174.219 167.586 174.523 168.377 174.523C169.402 174.523 170.155 174.057 170.636 173.126V168.784C170.138 167.876 169.391 167.422 168.395 167.422C167.604 167.422 166.985 167.729 166.54 168.344C166.095 168.96 165.872 169.871 165.872 171.078ZM176.498 175.727H174.872V166.218H176.498V175.727ZM174.74 163.695C174.74 163.431 174.819 163.209 174.978 163.027C175.142 162.845 175.382 162.755 175.698 162.755C176.015 162.755 176.255 162.845 176.419 163.027C176.583 163.209 176.665 163.431 176.665 163.695C176.665 163.959 176.583 164.178 176.419 164.354C176.255 164.53 176.015 164.618 175.698 164.618C175.382 164.618 175.142 164.53 174.978 164.354C174.819 164.178 174.74 163.959 174.74 163.695ZM180.646 166.218L180.699 167.413C181.426 166.499 182.375 166.042 183.547 166.042C185.557 166.042 186.57 167.176 186.588 169.443V175.727H184.962V169.434C184.956 168.749 184.798 168.242 184.487 167.914C184.183 167.586 183.705 167.422 183.055 167.422C182.527 167.422 182.064 167.562 181.666 167.844C181.268 168.125 180.957 168.494 180.734 168.951V175.727H179.108V166.218H180.646Z" fill="black"/>
<rect x="104.183" y="690.5" width="108" height="40" stroke="black" stroke-width="3"/>
<path d="M144.892 717.727H143.266V708.217H144.892V717.727ZM143.134 705.695C143.134 705.431 143.213 705.209 143.371 705.027C143.535 704.845 143.775 704.755 144.092 704.755C144.408 704.755 144.648 704.845 144.812 705.027C144.977 705.209 145.059 705.431 145.059 705.695C145.059 705.959 144.977 706.178 144.812 706.354C144.648 706.53 144.408 706.618 144.092 706.618C143.775 706.618 143.535 706.53 143.371 706.354C143.213 706.178 143.134 705.959 143.134 705.695ZM152.16 710.863H155.729V712.401H152.16V716.444H150.525V712.401H146.957V710.863H150.525V707.128H152.16V710.863ZM165.15 710.573H157.82V709.158H165.15V710.573ZM165.15 714.22H157.82V712.814H165.15V714.22ZM172.771 717.727H171.136V706.89L167.857 708.094V706.618L172.516 704.869H172.771V717.727Z" fill="black"/>
<path d="M243.335 560.5L267.387 520.5H401.952L376.525 560.5H243.335Z" stroke="black" stroke-width="3"/>
<path d="M69.6556 586.5L93.2953 554.5H227.608L202.617 586.5H69.6556Z" stroke="black" stroke-width="3"/>
<rect x="246.183" y="381.5" width="152" height="48" stroke="black" stroke-width="3"/>
<path d="M268.641 394.2C268.641 393.633 268.434 393.184 268.019 392.852C267.608 392.515 267.03 392.347 266.283 392.347C265.658 392.347 265.133 392.52 264.708 392.867C264.288 393.208 264.078 393.633 264.078 394.141H262.672C262.672 393.575 262.826 393.067 263.133 392.618C263.446 392.168 263.88 391.819 264.437 391.57C264.994 391.316 265.609 391.189 266.283 391.189C267.474 391.189 268.399 391.458 269.059 391.995C269.718 392.527 270.047 393.27 270.047 394.222C270.047 394.715 269.896 395.164 269.593 395.569C269.291 395.975 268.868 396.294 268.326 396.529C269.581 396.949 270.208 397.781 270.208 399.026C270.208 399.983 269.852 400.743 269.139 401.304C268.426 401.866 267.474 402.146 266.283 402.146C265.575 402.146 264.93 402.022 264.349 401.773C263.773 401.519 263.324 401.16 263.001 400.696C262.679 400.232 262.518 399.681 262.518 399.041H263.924C263.924 399.603 264.146 400.071 264.591 400.447C265.035 400.818 265.599 401.004 266.283 401.004C267.049 401.004 267.66 400.826 268.114 400.469C268.573 400.113 268.802 399.642 268.802 399.056C268.802 397.806 268.028 397.168 266.48 397.144H265.162V395.987H266.473C267.186 395.972 267.726 395.811 268.092 395.503C268.458 395.196 268.641 394.761 268.641 394.2ZM276.756 402C276.678 401.844 276.615 401.565 276.566 401.165C275.936 401.819 275.184 402.146 274.31 402.146C273.529 402.146 272.887 401.927 272.384 401.487C271.886 401.043 271.637 400.481 271.637 399.803C271.637 398.978 271.949 398.338 272.574 397.884C273.204 397.425 274.088 397.195 275.226 397.195H276.544V396.573C276.544 396.099 276.402 395.723 276.119 395.445C275.836 395.162 275.418 395.02 274.867 395.02C274.383 395.02 273.978 395.142 273.651 395.386C273.324 395.63 273.16 395.926 273.16 396.272H271.798C271.798 395.877 271.937 395.496 272.215 395.13C272.499 394.759 272.879 394.466 273.358 394.251C273.841 394.036 274.371 393.929 274.947 393.929C275.86 393.929 276.576 394.158 277.093 394.617C277.611 395.071 277.879 395.699 277.899 396.5V400.147C277.899 400.875 277.992 401.453 278.177 401.883V402H276.756ZM274.508 400.967C274.933 400.967 275.335 400.857 275.716 400.638C276.097 400.418 276.373 400.132 276.544 399.781V398.155H275.482C273.822 398.155 272.992 398.641 272.992 399.612C272.992 400.037 273.133 400.369 273.417 400.608C273.7 400.848 274.063 400.967 274.508 400.967ZM279.957 400.894L280.426 400.315C280.953 399.632 281.253 398.606 281.327 397.239L281.451 394.075H286.556V400.894H287.574V404.329H286.219V402H280.689V404.329H279.334L279.342 400.894H279.957ZM281.561 400.894H285.201V395.328H282.762L282.682 397.217C282.599 398.794 282.225 400.02 281.561 400.894ZM293.968 402C293.89 401.844 293.827 401.565 293.778 401.165C293.148 401.819 292.396 402.146 291.522 402.146C290.741 402.146 290.099 401.927 289.596 401.487C289.098 401.043 288.849 400.481 288.849 399.803C288.849 398.978 289.161 398.338 289.786 397.884C290.416 397.425 291.3 397.195 292.438 397.195H293.756V396.573C293.756 396.099 293.614 395.723 293.331 395.445C293.048 395.162 292.63 395.02 292.079 395.02C291.595 395.02 291.19 395.142 290.863 395.386C290.536 395.63 290.372 395.926 290.372 396.272H289.01C289.01 395.877 289.149 395.496 289.427 395.13C289.71 394.759 290.091 394.466 290.57 394.251C291.053 394.036 291.583 393.929 292.159 393.929C293.072 393.929 293.788 394.158 294.305 394.617C294.823 395.071 295.091 395.699 295.111 396.5V400.147C295.111 400.875 295.204 401.453 295.389 401.883V402H293.968ZM291.72 400.967C292.145 400.967 292.547 400.857 292.928 400.638C293.309 400.418 293.585 400.132 293.756 399.781V398.155H292.694C291.034 398.155 290.204 398.641 290.204 399.612C290.204 400.037 290.345 400.369 290.628 400.608C290.912 400.848 291.275 400.967 291.72 400.967ZM300.523 402.146C299.449 402.146 298.575 401.795 297.901 401.092C297.228 400.384 296.891 399.439 296.891 398.257V398.008C296.891 397.222 297.04 396.521 297.337 395.906C297.64 395.286 298.06 394.803 298.597 394.456C299.139 394.104 299.725 393.929 300.355 393.929C301.385 393.929 302.186 394.268 302.757 394.947C303.329 395.625 303.614 396.597 303.614 397.862V398.426H298.246C298.265 399.207 298.492 399.839 298.927 400.323C299.366 400.801 299.923 401.041 300.597 401.041C301.075 401.041 301.48 400.943 301.812 400.748C302.145 400.552 302.435 400.293 302.684 399.971L303.512 400.616C302.848 401.636 301.852 402.146 300.523 402.146ZM300.355 395.042C299.808 395.042 299.349 395.242 298.978 395.643C298.607 396.038 298.377 396.595 298.29 397.312H302.259V397.21C302.22 396.521 302.035 395.989 301.703 395.613C301.371 395.232 300.921 395.042 300.355 395.042ZM310.99 395.174H308.331V402H306.976V395.174H304.369V394.075H310.99V395.174ZM314.901 401.041C315.384 401.041 315.807 400.894 316.168 400.601C316.529 400.308 316.729 399.942 316.769 399.502H318.05C318.026 399.957 317.87 400.389 317.582 400.799C317.293 401.209 316.908 401.536 316.424 401.78C315.946 402.024 315.438 402.146 314.901 402.146C313.822 402.146 312.962 401.788 312.323 401.07C311.688 400.347 311.371 399.361 311.371 398.111V397.884C311.371 397.112 311.512 396.426 311.795 395.826C312.079 395.225 312.484 394.759 313.011 394.427C313.543 394.095 314.171 393.929 314.894 393.929C315.782 393.929 316.52 394.195 317.105 394.727C317.696 395.259 318.011 395.95 318.05 396.8H316.769C316.729 396.287 316.534 395.867 316.183 395.54C315.836 395.208 315.406 395.042 314.894 395.042C314.205 395.042 313.67 395.291 313.29 395.789C312.914 396.282 312.726 396.998 312.726 397.935V398.191C312.726 399.104 312.914 399.808 313.29 400.301C313.666 400.794 314.203 401.041 314.901 401.041ZM325.631 394.075V402H324.269V398.917H322.225L320.357 402H318.893L320.885 398.711C320.377 398.526 319.986 398.24 319.713 397.854C319.444 397.464 319.31 397.01 319.31 396.492C319.31 395.77 319.581 395.188 320.123 394.749C320.665 394.305 321.39 394.08 322.298 394.075H325.631ZM320.672 396.507C320.672 396.893 320.804 397.205 321.068 397.444C321.332 397.679 321.681 397.798 322.115 397.803H324.269V395.174H322.32C321.817 395.174 321.417 395.298 321.119 395.547C320.821 395.792 320.672 396.111 320.672 396.507ZM336.419 402C336.341 401.844 336.278 401.565 336.229 401.165C335.599 401.819 334.847 402.146 333.973 402.146C333.192 402.146 332.55 401.927 332.047 401.487C331.549 401.043 331.3 400.481 331.3 399.803C331.3 398.978 331.612 398.338 332.237 397.884C332.867 397.425 333.751 397.195 334.889 397.195H336.207V396.573C336.207 396.099 336.065 395.723 335.782 395.445C335.499 395.162 335.082 395.02 334.53 395.02C334.046 395.02 333.641 395.142 333.314 395.386C332.987 395.63 332.823 395.926 332.823 396.272H331.461C331.461 395.877 331.6 395.496 331.878 395.13C332.162 394.759 332.542 394.466 333.021 394.251C333.504 394.036 334.034 393.929 334.61 393.929C335.523 393.929 336.239 394.158 336.756 394.617C337.274 395.071 337.542 395.699 337.562 396.5V400.147C337.562 400.875 337.655 401.453 337.84 401.883V402H336.419ZM334.171 400.967C334.596 400.967 334.999 400.857 335.379 400.638C335.76 400.418 336.036 400.132 336.207 399.781V398.155H335.145C333.485 398.155 332.655 398.641 332.655 399.612C332.655 400.037 332.796 400.369 333.08 400.608C333.363 400.848 333.727 400.967 334.171 400.967ZM345.458 395.174H342.799V402H341.444V395.174H338.836V394.075H345.458V395.174ZM353.47 398.125C353.47 399.332 353.194 400.303 352.643 401.041C352.091 401.778 351.344 402.146 350.401 402.146C349.439 402.146 348.683 401.841 348.131 401.231V405.047H346.776V394.075H348.014L348.08 394.954C348.631 394.271 349.398 393.929 350.379 393.929C351.332 393.929 352.083 394.288 352.635 395.005C353.192 395.723 353.47 396.722 353.47 398.001V398.125ZM352.115 397.972C352.115 397.078 351.925 396.373 351.544 395.855C351.163 395.337 350.641 395.079 349.977 395.079C349.156 395.079 348.541 395.442 348.131 396.17V399.957C348.536 400.679 349.156 401.041 349.991 401.041C350.641 401.041 351.156 400.784 351.537 400.271C351.922 399.754 352.115 398.987 352.115 397.972ZM360.326 394.075H361.681V402H360.326V396.221L356.671 402H355.316V394.075H356.671V399.861L360.326 394.075ZM367.335 394.529C368.331 394.529 369.127 394.864 369.723 395.533C370.323 396.197 370.624 397.073 370.624 398.162V398.287C370.624 399.034 370.479 399.703 370.191 400.293C369.903 400.879 369.488 401.336 368.946 401.663C368.409 401.985 367.789 402.146 367.086 402.146C366.021 402.146 365.165 401.792 364.515 401.084C363.866 400.372 363.541 399.417 363.541 398.221V397.562C363.541 395.896 363.849 394.573 364.464 393.592C365.084 392.61 365.997 392.012 367.203 391.797C367.887 391.675 368.348 391.526 368.587 391.351C368.827 391.175 368.946 390.933 368.946 390.625H370.06C370.06 391.236 369.92 391.712 369.642 392.054C369.369 392.396 368.929 392.637 368.324 392.779L367.313 393.006C366.507 393.196 365.902 393.519 365.497 393.973C365.096 394.422 364.835 395.022 364.713 395.774C365.431 394.944 366.305 394.529 367.335 394.529ZM367.071 395.643C366.407 395.643 365.88 395.867 365.489 396.316C365.099 396.761 364.903 397.378 364.903 398.169V398.287C364.903 399.136 365.099 399.81 365.489 400.308C365.885 400.801 366.417 401.048 367.086 401.048C367.76 401.048 368.292 400.799 368.683 400.301C369.073 399.803 369.269 399.075 369.269 398.118C369.269 397.371 369.071 396.773 368.675 396.324C368.285 395.87 367.75 395.643 367.071 395.643ZM374.74 400.015L376.585 394.075H378.036L374.85 403.223C374.356 404.542 373.573 405.201 372.499 405.201L372.242 405.179L371.737 405.083V403.985L372.103 404.014C372.562 404.014 372.918 403.921 373.172 403.736C373.431 403.55 373.644 403.211 373.81 402.718L374.11 401.912L371.283 394.075H372.762L374.74 400.015ZM385.14 395.174H382.481V402H381.126V395.174H378.519V394.075H385.14V395.174ZM264.854 415.671C264.854 414.568 265.001 413.508 265.294 412.493C265.592 411.477 266.034 410.554 266.62 409.724C267.206 408.894 267.813 408.308 268.443 407.966L268.722 408.86C268.009 409.407 267.423 410.242 266.964 411.365C266.51 412.488 266.261 413.745 266.217 415.137L266.209 415.759C266.209 417.644 266.554 419.28 267.242 420.667C267.657 421.497 268.15 422.146 268.722 422.615L268.443 423.442C267.794 423.081 267.174 422.476 266.583 421.626C265.431 419.966 264.854 417.981 264.854 415.671ZM270.15 412.075H271.512V418.894H275.16V412.075H276.515V418.894H277.459L277.328 422.351H276.112V420H270.15V412.075ZM279.049 420V412.075H282.14C283.194 412.075 284.002 412.261 284.564 412.632C285.13 412.998 285.414 413.538 285.414 414.25C285.414 414.617 285.304 414.949 285.084 415.247C284.864 415.54 284.54 415.764 284.11 415.92C284.588 416.033 284.972 416.252 285.26 416.58C285.553 416.907 285.699 417.297 285.699 417.751C285.699 418.479 285.431 419.036 284.894 419.421C284.361 419.807 283.607 420 282.63 420H279.049ZM280.404 416.521V418.909H282.645C283.211 418.909 283.634 418.804 283.912 418.594C284.195 418.384 284.337 418.088 284.337 417.708C284.337 416.917 283.756 416.521 282.594 416.521H280.404ZM280.404 415.437H282.154C283.424 415.437 284.059 415.066 284.059 414.324C284.059 413.582 283.458 413.198 282.257 413.174H280.404V415.437ZM290.782 420.146C289.708 420.146 288.834 419.795 288.16 419.092C287.486 418.384 287.149 417.439 287.149 416.257V416.008C287.149 415.222 287.298 414.521 287.596 413.906C287.899 413.286 288.319 412.803 288.856 412.456C289.398 412.104 289.984 411.929 290.614 411.929C291.644 411.929 292.445 412.268 293.016 412.947C293.587 413.625 293.873 414.597 293.873 415.862V416.426H288.504C288.524 417.207 288.751 417.839 289.186 418.323C289.625 418.801 290.182 419.041 290.855 419.041C291.334 419.041 291.739 418.943 292.071 418.748C292.403 418.552 292.694 418.293 292.943 417.971L293.771 418.616C293.106 419.636 292.11 420.146 290.782 420.146ZM290.614 413.042C290.067 413.042 289.608 413.242 289.237 413.643C288.866 414.038 288.636 414.595 288.548 415.312H292.518V415.21C292.479 414.521 292.293 413.989 291.961 413.613C291.629 413.232 291.18 413.042 290.614 413.042ZM301.249 413.174H298.59V420H297.235V413.174H294.627V412.075H301.249V413.174ZM305.694 415.745C305.694 416.833 305.55 417.878 305.262 418.879C304.979 419.875 304.542 420.796 303.951 421.641C303.365 422.485 302.75 423.086 302.105 423.442L301.82 422.615C302.572 422.039 303.175 421.145 303.629 419.934C304.088 418.718 304.322 417.371 304.332 415.891V415.657C304.332 414.631 304.225 413.679 304.01 412.8C303.795 411.917 303.495 411.125 303.109 410.427C302.728 409.729 302.298 409.185 301.82 408.794L302.105 407.966C302.75 408.323 303.363 408.918 303.944 409.753C304.53 410.588 304.967 411.509 305.255 412.515C305.548 413.521 305.694 414.597 305.694 415.745ZM314.681 419.041C315.165 419.041 315.587 418.894 315.948 418.601C316.31 418.308 316.51 417.942 316.549 417.502H317.831C317.806 417.957 317.65 418.389 317.362 418.799C317.074 419.209 316.688 419.536 316.205 419.78C315.726 420.024 315.218 420.146 314.681 420.146C313.602 420.146 312.743 419.788 312.103 419.07C311.468 418.347 311.151 417.361 311.151 416.111V415.884C311.151 415.112 311.292 414.426 311.576 413.826C311.859 413.225 312.264 412.759 312.792 412.427C313.324 412.095 313.951 411.929 314.674 411.929C315.562 411.929 316.3 412.195 316.886 412.727C317.477 413.259 317.792 413.95 317.831 414.8H316.549C316.51 414.287 316.314 413.867 315.963 413.54C315.616 413.208 315.187 413.042 314.674 413.042C313.985 413.042 313.451 413.291 313.07 413.789C312.694 414.282 312.506 414.998 312.506 415.935V416.191C312.506 417.104 312.694 417.808 313.07 418.301C313.446 418.794 313.983 419.041 314.681 419.041ZM324.481 412.075H325.836V420H324.481V414.221L320.826 420H319.471V412.075H320.826V417.861L324.481 412.075ZM332.574 418.206L335.27 412.075H336.961V420H335.606V414.236L333.043 420H332.105L329.491 414.111V420H328.136V412.075H329.894L332.574 418.206ZM339.269 420V412.075H342.359C343.414 412.075 344.222 412.261 344.784 412.632C345.35 412.998 345.633 413.538 345.633 414.25C345.633 414.617 345.523 414.949 345.304 415.247C345.084 415.54 344.759 415.764 344.33 415.92C344.808 416.033 345.191 416.252 345.479 416.58C345.772 416.907 345.919 417.297 345.919 417.751C345.919 418.479 345.65 419.036 345.113 419.421C344.581 419.807 343.827 420 342.85 420H339.269ZM340.624 416.521V418.909H342.865C343.431 418.909 343.854 418.804 344.132 418.594C344.415 418.384 344.557 418.088 344.557 417.708C344.557 416.917 343.976 416.521 342.813 416.521H340.624ZM340.624 415.437H342.374C343.644 415.437 344.278 415.066 344.278 414.324C344.278 413.582 343.678 413.198 342.477 413.174H340.624V415.437ZM347.354 415.964C347.354 415.188 347.506 414.49 347.809 413.87C348.116 413.25 348.541 412.771 349.083 412.434C349.63 412.097 350.252 411.929 350.951 411.929C352.03 411.929 352.901 412.302 353.565 413.049C354.234 413.796 354.569 414.79 354.569 416.03V416.125C354.569 416.897 354.42 417.59 354.122 418.206C353.829 418.816 353.407 419.292 352.855 419.634C352.308 419.976 351.678 420.146 350.965 420.146C349.891 420.146 349.02 419.773 348.351 419.026C347.687 418.279 347.354 417.29 347.354 416.06V415.964ZM348.717 416.125C348.717 417.004 348.919 417.71 349.325 418.242C349.735 418.774 350.282 419.041 350.965 419.041C351.654 419.041 352.201 418.772 352.606 418.235C353.011 417.693 353.214 416.936 353.214 415.964C353.214 415.095 353.006 414.392 352.591 413.855C352.181 413.313 351.634 413.042 350.951 413.042C350.282 413.042 349.742 413.308 349.332 413.84C348.922 414.373 348.717 415.134 348.717 416.125ZM362.647 412.075V420H361.285V413.196H358.59L358.429 416.162C358.341 417.524 358.111 418.499 357.74 419.084C357.374 419.67 356.791 419.976 355.99 420H355.448V418.806L355.836 418.777C356.275 418.728 356.59 418.474 356.781 418.015C356.971 417.556 357.093 416.707 357.147 415.466L357.293 412.075H362.647ZM364.464 415.964C364.464 415.188 364.615 414.49 364.918 413.87C365.226 413.25 365.65 412.771 366.192 412.434C366.739 412.097 367.362 411.929 368.06 411.929C369.139 411.929 370.011 412.302 370.675 413.049C371.344 413.796 371.678 414.79 371.678 416.03V416.125C371.678 416.897 371.529 417.59 371.231 418.206C370.938 418.816 370.516 419.292 369.964 419.634C369.417 419.976 368.788 420.146 368.075 420.146C367 420.146 366.129 419.773 365.46 419.026C364.796 418.279 364.464 417.29 364.464 416.06V415.964ZM365.826 416.125C365.826 417.004 366.029 417.71 366.434 418.242C366.844 418.774 367.391 419.041 368.075 419.041C368.763 419.041 369.31 418.772 369.715 418.235C370.121 417.693 370.323 416.936 370.323 415.964C370.323 415.095 370.116 414.392 369.701 413.855C369.291 413.313 368.744 413.042 368.06 413.042C367.391 413.042 366.852 413.308 366.441 413.84C366.031 414.373 365.826 415.134 365.826 416.125ZM377.94 418.206L380.636 412.075H382.328V420H380.973V414.236L378.409 420H377.472L374.857 414.111V420H373.502V412.075H375.26L377.94 418.206Z" fill="black"/>
<rect x="64.1826" y="614.5" width="170" height="48" stroke="black" stroke-width="3"/>
<path d="M84.0231 635V627.075H87.1139C88.1686 627.075 88.9767 627.261 89.5382 627.632C90.1046 627.998 90.3878 628.538 90.3878 629.25C90.3878 629.617 90.278 629.949 90.0582 630.247C89.8385 630.54 89.5138 630.764 89.0841 630.92C89.5626 631.033 89.9459 631.252 90.234 631.58C90.527 631.907 90.6735 632.297 90.6735 632.751C90.6735 633.479 90.4049 634.036 89.8678 634.421C89.3356 634.807 88.5812 635 87.6046 635H84.0231ZM85.3781 631.521V633.909H87.6193C88.1857 633.909 88.608 633.804 88.8864 633.594C89.1696 633.384 89.3112 633.088 89.3112 632.708C89.3112 631.917 88.7301 631.521 87.568 631.521H85.3781ZM85.3781 630.437H87.1285C88.3981 630.437 89.0328 630.066 89.0328 629.324C89.0328 628.582 88.4323 628.198 87.2311 628.174H85.3781V630.437ZM92.109 630.964C92.109 630.188 92.2604 629.49 92.5631 628.87C92.8707 628.25 93.2955 627.771 93.8375 627.434C94.3844 627.097 95.007 626.929 95.7052 626.929C96.7843 626.929 97.6559 627.302 98.32 628.049C98.9889 628.796 99.3234 629.79 99.3234 631.03V631.125C99.3234 631.897 99.1744 632.59 98.8766 633.206C98.5836 633.816 98.1613 634.292 97.6095 634.634C97.0626 634.976 96.4327 635.146 95.7199 635.146C94.6456 635.146 93.7741 634.773 93.1051 634.026C92.441 633.279 92.109 632.29 92.109 631.06V630.964ZM93.4713 631.125C93.4713 632.004 93.674 632.71 94.0792 633.242C94.4894 633.774 95.0363 634.041 95.7199 634.041C96.4083 634.041 96.9552 633.772 97.3605 633.235C97.7658 632.693 97.9684 631.936 97.9684 630.964C97.9684 630.095 97.7609 629.392 97.3458 628.855C96.9357 628.313 96.3888 628.042 95.7052 628.042C95.0363 628.042 94.4967 628.308 94.0866 628.84C93.6764 629.373 93.4713 630.134 93.4713 631.125ZM105.381 629.243C105.381 628.872 105.239 628.579 104.956 628.364C104.672 628.145 104.284 628.035 103.791 628.035C103.313 628.035 102.912 628.159 102.59 628.408C102.273 628.657 102.114 628.95 102.114 629.287H100.766C100.766 628.599 101.054 628.035 101.631 627.595C102.207 627.156 102.927 626.936 103.791 626.936C104.719 626.936 105.442 627.136 105.959 627.537C106.477 627.932 106.735 628.499 106.735 629.236C106.735 629.592 106.628 629.919 106.413 630.217C106.198 630.515 105.893 630.752 105.498 630.928C106.421 631.24 106.882 631.855 106.882 632.773C106.882 633.501 106.601 634.077 106.04 634.502C105.478 634.927 104.729 635.139 103.791 635.139C102.878 635.139 102.124 634.917 101.528 634.473C100.937 634.023 100.642 633.418 100.642 632.656H101.989C101.989 633.042 102.16 633.374 102.502 633.652C102.849 633.926 103.278 634.062 103.791 634.062C104.309 634.062 104.726 633.943 105.044 633.704C105.361 633.464 105.52 633.154 105.52 632.773C105.52 632.329 105.385 632.012 105.117 631.821C104.853 631.626 104.441 631.528 103.879 631.528H102.524V630.386H103.996C104.919 630.361 105.381 629.98 105.381 629.243ZM108.764 635V627.075H111.855C112.91 627.075 113.718 627.261 114.279 627.632C114.846 627.998 115.129 628.538 115.129 629.25C115.129 629.617 115.019 629.949 114.799 630.247C114.58 630.54 114.255 630.764 113.825 630.92C114.304 631.033 114.687 631.252 114.975 631.58C115.268 631.907 115.415 632.297 115.415 632.751C115.415 633.479 115.146 634.036 114.609 634.421C114.077 634.807 113.322 635 112.346 635H108.764ZM110.119 631.521V633.909H112.36C112.927 633.909 113.349 633.804 113.628 633.594C113.911 633.384 114.052 633.088 114.052 632.708C114.052 631.917 113.471 631.521 112.309 631.521H110.119ZM110.119 630.437H111.87C113.139 630.437 113.774 630.066 113.774 629.324C113.774 628.582 113.173 628.198 111.972 628.174H110.119V630.437ZM123.903 631.125C123.903 632.332 123.628 633.303 123.076 634.041C122.524 634.778 121.777 635.146 120.835 635.146C119.873 635.146 119.116 634.841 118.564 634.231V638.047H117.209V627.075H118.447L118.513 627.954C119.065 627.271 119.831 626.929 120.813 626.929C121.765 626.929 122.517 627.288 123.068 628.005C123.625 628.723 123.903 629.722 123.903 631.001V631.125ZM122.548 630.972C122.548 630.078 122.358 629.373 121.977 628.855C121.596 628.337 121.074 628.079 120.41 628.079C119.589 628.079 118.974 628.442 118.564 629.17V632.957C118.969 633.679 119.589 634.041 120.424 634.041C121.074 634.041 121.589 633.784 121.97 633.271C122.356 632.754 122.548 631.987 122.548 630.972ZM130.525 635C130.446 634.844 130.383 634.565 130.334 634.165C129.704 634.819 128.952 635.146 128.078 635.146C127.297 635.146 126.655 634.927 126.152 634.487C125.654 634.043 125.405 633.481 125.405 632.803C125.405 631.978 125.717 631.338 126.342 630.884C126.972 630.425 127.856 630.195 128.994 630.195H130.312V629.573C130.312 629.099 130.171 628.723 129.887 628.445C129.604 628.162 129.187 628.02 128.635 628.02C128.151 628.02 127.746 628.142 127.419 628.386C127.092 628.63 126.928 628.926 126.928 629.272H125.566C125.566 628.877 125.705 628.496 125.984 628.13C126.267 627.759 126.648 627.466 127.126 627.251C127.61 627.036 128.139 626.929 128.715 626.929C129.629 626.929 130.344 627.158 130.861 627.617C131.379 628.071 131.648 628.699 131.667 629.5V633.147C131.667 633.875 131.76 634.453 131.945 634.883V635H130.525ZM128.276 633.967C128.701 633.967 129.104 633.857 129.485 633.638C129.865 633.418 130.141 633.132 130.312 632.781V631.155H129.25C127.59 631.155 126.76 631.641 126.76 632.612C126.76 633.037 126.901 633.369 127.185 633.608C127.468 633.848 127.832 633.967 128.276 633.967ZM139.563 628.174H136.904V635H135.549V628.174H132.942V627.075H139.563V628.174ZM149.494 635C149.416 634.844 149.353 634.565 149.304 634.165C148.674 634.819 147.922 635.146 147.048 635.146C146.267 635.146 145.625 634.927 145.122 634.487C144.624 634.043 144.375 633.481 144.375 632.803C144.375 631.978 144.687 631.338 145.312 630.884C145.942 630.425 146.826 630.195 147.964 630.195H149.282V629.573C149.282 629.099 149.14 628.723 148.857 628.445C148.574 628.162 148.156 628.02 147.605 628.02C147.121 628.02 146.716 628.142 146.389 628.386C146.062 628.63 145.898 628.926 145.898 629.272H144.536C144.536 628.877 144.675 628.496 144.953 628.13C145.236 627.759 145.617 627.466 146.096 627.251C146.579 627.036 147.109 626.929 147.685 626.929C148.598 626.929 149.314 627.158 149.831 627.617C150.349 628.071 150.617 628.699 150.637 629.5V633.147C150.637 633.875 150.73 634.453 150.915 634.883V635H149.494ZM147.246 633.967C147.671 633.967 148.073 633.857 148.454 633.638C148.835 633.418 149.111 633.132 149.282 632.781V631.155H148.22C146.56 631.155 145.73 631.641 145.73 632.612C145.73 633.037 145.871 633.369 146.154 633.608C146.438 633.848 146.801 633.967 147.246 633.967ZM158.532 628.174H155.874V635H154.519V628.174H151.911V627.075H158.532V628.174ZM166.545 631.125C166.545 632.332 166.269 633.303 165.717 634.041C165.166 634.778 164.419 635.146 163.476 635.146C162.514 635.146 161.757 634.841 161.206 634.231V638.047H159.851V627.075H161.089L161.154 627.954C161.706 627.271 162.473 626.929 163.454 626.929C164.406 626.929 165.158 627.288 165.71 628.005C166.267 628.723 166.545 629.722 166.545 631.001V631.125ZM165.19 630.972C165.19 630.078 165 629.373 164.619 628.855C164.238 628.337 163.715 628.079 163.051 628.079C162.231 628.079 161.616 628.442 161.206 629.17V632.957C161.611 633.679 162.231 634.041 163.066 634.041C163.715 634.041 164.231 633.784 164.611 633.271C164.997 632.754 165.19 631.987 165.19 630.972ZM173.401 627.075H174.756V635H173.401V629.221L169.746 635H168.391V627.075H169.746V632.861L173.401 627.075ZM180.41 627.529C181.406 627.529 182.202 627.864 182.797 628.533C183.398 629.197 183.698 630.073 183.698 631.162V631.287C183.698 632.034 183.554 632.703 183.266 633.293C182.978 633.879 182.563 634.336 182.021 634.663C181.484 634.985 180.864 635.146 180.161 635.146C179.096 635.146 178.239 634.792 177.59 634.084C176.941 633.372 176.616 632.417 176.616 631.221V630.562C176.616 628.896 176.923 627.573 177.539 626.592C178.159 625.61 179.072 625.012 180.278 624.797C180.962 624.675 181.423 624.526 181.662 624.351C181.901 624.175 182.021 623.933 182.021 623.625H183.134C183.134 624.236 182.995 624.712 182.717 625.054C182.443 625.396 182.004 625.637 181.399 625.779L180.388 626.006C179.582 626.196 178.977 626.519 178.571 626.973C178.171 627.422 177.91 628.022 177.788 628.774C178.506 627.944 179.38 627.529 180.41 627.529ZM180.146 628.643C179.482 628.643 178.955 628.867 178.564 629.316C178.173 629.761 177.978 630.378 177.978 631.169V631.287C177.978 632.136 178.173 632.81 178.564 633.308C178.96 633.801 179.492 634.048 180.161 634.048C180.835 634.048 181.367 633.799 181.757 633.301C182.148 632.803 182.343 632.075 182.343 631.118C182.343 630.371 182.146 629.773 181.75 629.324C181.36 628.87 180.825 628.643 180.146 628.643ZM187.815 633.015L189.66 627.075H191.11L187.924 636.223C187.431 637.542 186.648 638.201 185.573 638.201L185.317 638.179L184.812 638.083V636.985L185.178 637.014C185.637 637.014 185.993 636.921 186.247 636.736C186.506 636.55 186.718 636.211 186.884 635.718L187.185 634.912L184.358 627.075H185.837L187.815 633.015ZM198.215 628.174H195.556V635H194.201V628.174H191.594V627.075H198.215V628.174ZM204.309 635C204.231 634.844 204.167 634.565 204.118 634.165C203.488 634.819 202.736 635.146 201.862 635.146C201.081 635.146 200.439 634.927 199.936 634.487C199.438 634.043 199.189 633.481 199.189 632.803C199.189 631.978 199.502 631.338 200.127 630.884C200.756 630.425 201.64 630.195 202.778 630.195H204.096V629.573C204.096 629.099 203.955 628.723 203.672 628.445C203.388 628.162 202.971 628.02 202.419 628.02C201.936 628.02 201.53 628.142 201.203 628.386C200.876 628.63 200.713 628.926 200.713 629.272H199.35C199.35 628.877 199.489 628.496 199.768 628.13C200.051 627.759 200.432 627.466 200.91 627.251C201.394 627.036 201.923 626.929 202.5 626.929C203.413 626.929 204.128 627.158 204.646 627.617C205.163 628.071 205.432 628.699 205.451 629.5V633.147C205.451 633.875 205.544 634.453 205.73 634.883V635H204.309ZM202.06 633.967C202.485 633.967 202.888 633.857 203.269 633.638C203.65 633.418 203.925 633.132 204.096 632.781V631.155H203.034C201.374 631.155 200.544 631.641 200.544 632.612C200.544 633.037 200.686 633.369 200.969 633.608C201.252 633.848 201.616 633.967 202.06 633.967ZM211.421 635V627.075H214.511C215.566 627.075 216.374 627.261 216.936 627.632C217.502 627.998 217.785 628.538 217.785 629.25C217.785 629.617 217.675 629.949 217.456 630.247C217.236 630.54 216.911 630.764 216.482 630.92C216.96 631.033 217.343 631.252 217.631 631.58C217.924 631.907 218.071 632.297 218.071 632.751C218.071 633.479 217.802 634.036 217.265 634.421C216.733 634.807 215.979 635 215.002 635H211.421ZM212.776 631.521V633.909H215.017C215.583 633.909 216.005 633.804 216.284 633.594C216.567 633.384 216.709 633.088 216.709 632.708C216.709 631.917 216.128 631.521 214.965 631.521H212.776ZM212.776 630.437H214.526C215.796 630.437 216.43 630.066 216.43 629.324C216.43 628.582 215.83 628.198 214.629 628.174H212.776V630.437ZM82.3312 653H80.9762V649.616H77.3361V653H75.9738V645.075H77.3361V648.51H80.9762V645.075H82.3312V653ZM89.4064 653C89.3283 652.844 89.2648 652.565 89.216 652.165C88.5861 652.819 87.8341 653.146 86.9601 653.146C86.1788 653.146 85.5368 652.927 85.0338 652.487C84.5358 652.043 84.2868 651.481 84.2868 650.803C84.2868 649.978 84.5993 649.338 85.2243 648.884C85.8541 648.425 86.7379 648.195 87.8756 648.195H89.194V647.573C89.194 647.099 89.0524 646.723 88.7692 646.445C88.486 646.162 88.0685 646.02 87.5167 646.02C87.0333 646.02 86.6281 646.142 86.3009 646.386C85.9738 646.63 85.8102 646.926 85.8102 647.272H84.4479C84.4479 646.877 84.587 646.496 84.8654 646.13C85.1486 645.759 85.5294 645.466 86.0079 645.251C86.4913 645.036 87.0211 644.929 87.5973 644.929C88.5104 644.929 89.2257 645.158 89.7433 645.617C90.2609 646.071 90.5294 646.699 90.549 647.5V651.147C90.549 651.875 90.6417 652.453 90.8273 652.883V653H89.4064ZM87.1578 651.967C87.5826 651.967 87.9855 651.857 88.3663 651.638C88.7472 651.418 89.0231 651.132 89.194 650.781V649.155H88.132C86.4718 649.155 85.6417 649.641 85.6417 650.612C85.6417 651.037 85.7833 651.369 86.0665 651.608C86.3497 651.848 86.7135 651.967 87.1578 651.967ZM98.6569 653H97.2946V650.129C96.6989 650.285 96.0885 650.363 95.4635 650.363C94.4723 650.363 93.7155 650.109 93.193 649.602C92.6754 649.094 92.4118 648.371 92.402 647.434V645.068H93.757V647.478C93.7814 648.659 94.3502 649.25 95.4635 649.25C96.0885 649.25 96.6989 649.172 97.2946 649.016V645.075H98.6569V653ZM105.725 653C105.647 652.844 105.583 652.565 105.534 652.165C104.904 652.819 104.152 653.146 103.278 653.146C102.497 653.146 101.855 652.927 101.352 652.487C100.854 652.043 100.605 651.481 100.605 650.803C100.605 649.978 100.918 649.338 101.543 648.884C102.172 648.425 103.056 648.195 104.194 648.195H105.512V647.573C105.512 647.099 105.371 646.723 105.088 646.445C104.804 646.162 104.387 646.02 103.835 646.02C103.352 646.02 102.946 646.142 102.619 646.386C102.292 646.63 102.129 646.926 102.129 647.272H100.766C100.766 646.877 100.905 646.496 101.184 646.13C101.467 645.759 101.848 645.466 102.326 645.251C102.81 645.036 103.339 644.929 103.916 644.929C104.829 644.929 105.544 645.158 106.062 645.617C106.579 646.071 106.848 646.699 106.867 647.5V651.147C106.867 651.875 106.96 652.453 107.146 652.883V653H105.725ZM103.476 651.967C103.901 651.967 104.304 651.857 104.685 651.638C105.066 651.418 105.341 651.132 105.512 650.781V649.155H104.45C102.79 649.155 101.96 649.641 101.96 650.612C101.96 651.037 102.102 651.369 102.385 651.608C102.668 651.848 103.032 651.967 103.476 651.967ZM115.488 645.075V653H114.126V646.196H111.43L111.269 649.162C111.181 650.524 110.952 651.499 110.581 652.084C110.214 652.67 109.631 652.976 108.83 653H108.288V651.806L108.676 651.777C109.116 651.728 109.431 651.474 109.621 651.015C109.812 650.556 109.934 649.707 109.987 648.466L110.134 645.075H115.488ZM119.143 647.807H121.201C122.099 647.817 122.81 648.051 123.332 648.51C123.855 648.969 124.116 649.592 124.116 650.378C124.116 651.169 123.847 651.804 123.31 652.282C122.773 652.761 122.05 653 121.142 653H117.788V645.075H119.143V647.807ZM119.143 648.913V651.894H121.157C121.665 651.894 122.058 651.765 122.336 651.506C122.614 651.242 122.754 650.883 122.754 650.429C122.754 649.99 122.617 649.631 122.343 649.353C122.075 649.069 121.696 648.923 121.208 648.913H119.143ZM132.282 653H130.927V649.616H127.287V653H125.925V645.075H127.287V648.51H130.927V645.075H132.282V653ZM134.106 648.964C134.106 648.188 134.257 647.49 134.56 646.87C134.868 646.25 135.293 645.771 135.835 645.434C136.381 645.097 137.004 644.929 137.702 644.929C138.781 644.929 139.653 645.302 140.317 646.049C140.986 646.796 141.32 647.79 141.32 649.03V649.125C141.32 649.897 141.172 650.59 140.874 651.206C140.581 651.816 140.158 652.292 139.607 652.634C139.06 652.976 138.43 653.146 137.717 653.146C136.643 653.146 135.771 652.773 135.102 652.026C134.438 651.279 134.106 650.29 134.106 649.06V648.964ZM135.468 649.125C135.468 650.004 135.671 650.71 136.076 651.242C136.486 651.774 137.033 652.041 137.717 652.041C138.405 652.041 138.952 651.772 139.358 651.235C139.763 650.693 139.965 649.936 139.965 648.964C139.965 648.095 139.758 647.392 139.343 646.855C138.933 646.313 138.386 646.042 137.702 646.042C137.033 646.042 136.494 646.308 136.084 646.84C135.673 647.373 135.468 648.134 135.468 649.125ZM146.308 653.146C145.234 653.146 144.36 652.795 143.686 652.092C143.012 651.384 142.675 650.439 142.675 649.257V649.008C142.675 648.222 142.824 647.521 143.122 646.906C143.425 646.286 143.845 645.803 144.382 645.456C144.924 645.104 145.51 644.929 146.14 644.929C147.17 644.929 147.971 645.268 148.542 645.947C149.113 646.625 149.399 647.597 149.399 648.862V649.426H144.03C144.05 650.207 144.277 650.839 144.712 651.323C145.151 651.801 145.708 652.041 146.381 652.041C146.86 652.041 147.265 651.943 147.597 651.748C147.929 651.552 148.22 651.293 148.469 650.971L149.297 651.616C148.632 652.636 147.636 653.146 146.308 653.146ZM146.14 646.042C145.593 646.042 145.134 646.242 144.763 646.643C144.392 647.038 144.162 647.595 144.074 648.312H148.044V648.21C148.005 647.521 147.819 646.989 147.487 646.613C147.155 646.232 146.706 646.042 146.14 646.042ZM157.873 652.041C158.357 652.041 158.779 651.894 159.14 651.601C159.502 651.308 159.702 650.942 159.741 650.502H161.023C160.998 650.957 160.842 651.389 160.554 651.799C160.266 652.209 159.88 652.536 159.397 652.78C158.918 653.024 158.41 653.146 157.873 653.146C156.794 653.146 155.935 652.788 155.295 652.07C154.66 651.347 154.343 650.361 154.343 649.111V648.884C154.343 648.112 154.485 647.426 154.768 646.826C155.051 646.225 155.456 645.759 155.984 645.427C156.516 645.095 157.143 644.929 157.866 644.929C158.755 644.929 159.492 645.195 160.078 645.727C160.669 646.259 160.984 646.95 161.023 647.8H159.741C159.702 647.287 159.506 646.867 159.155 646.54C158.808 646.208 158.379 646.042 157.866 646.042C157.177 646.042 156.643 646.291 156.262 646.789C155.886 647.282 155.698 647.998 155.698 648.935V649.191C155.698 650.104 155.886 650.808 156.262 651.301C156.638 651.794 157.175 652.041 157.873 652.041ZM162.187 648.964C162.187 648.188 162.339 647.49 162.641 646.87C162.949 646.25 163.374 645.771 163.916 645.434C164.463 645.097 165.085 644.929 165.783 644.929C166.862 644.929 167.734 645.302 168.398 646.049C169.067 646.796 169.401 647.79 169.401 649.03V649.125C169.401 649.897 169.253 650.59 168.955 651.206C168.662 651.816 168.239 652.292 167.688 652.634C167.141 652.976 166.511 653.146 165.798 653.146C164.724 653.146 163.852 652.773 163.183 652.026C162.519 651.279 162.187 650.29 162.187 649.06V648.964ZM163.549 649.125C163.549 650.004 163.752 650.71 164.157 651.242C164.568 651.774 165.114 652.041 165.798 652.041C166.486 652.041 167.033 651.772 167.439 651.235C167.844 650.693 168.047 649.936 168.047 648.964C168.047 648.095 167.839 647.392 167.424 646.855C167.014 646.313 166.467 646.042 165.783 646.042C165.114 646.042 164.575 646.308 164.165 646.84C163.755 647.373 163.549 648.134 163.549 649.125ZM174.279 652.041C174.763 652.041 175.185 651.894 175.547 651.601C175.908 651.308 176.108 650.942 176.147 650.502H177.429C177.404 650.957 177.248 651.389 176.96 651.799C176.672 652.209 176.286 652.536 175.803 652.78C175.324 653.024 174.817 653.146 174.279 653.146C173.2 653.146 172.341 652.788 171.701 652.07C171.067 651.347 170.749 650.361 170.749 649.111V648.884C170.749 648.112 170.891 647.426 171.174 646.826C171.457 646.225 171.862 645.759 172.39 645.427C172.922 645.095 173.549 644.929 174.272 644.929C175.161 644.929 175.898 645.195 176.484 645.727C177.075 646.259 177.39 646.95 177.429 647.8H176.147C176.108 647.287 175.913 646.867 175.561 646.54C175.214 646.208 174.785 646.042 174.272 646.042C173.584 646.042 173.049 646.291 172.668 646.789C172.292 647.282 172.104 647.998 172.104 648.935V649.191C172.104 650.104 172.292 650.808 172.668 651.301C173.044 651.794 173.581 652.041 174.279 652.041ZM184.841 646.174H182.182V653H180.827V646.174H178.22V645.075H184.841V646.174ZM185.493 648.964C185.493 648.188 185.644 647.49 185.947 646.87C186.255 646.25 186.679 645.771 187.221 645.434C187.768 645.097 188.391 644.929 189.089 644.929C190.168 644.929 191.04 645.302 191.704 646.049C192.373 646.796 192.707 647.79 192.707 649.03V649.125C192.707 649.897 192.558 650.59 192.26 651.206C191.967 651.816 191.545 652.292 190.993 652.634C190.446 652.976 189.817 653.146 189.104 653.146C188.029 653.146 187.158 652.773 186.489 652.026C185.825 651.279 185.493 650.29 185.493 649.06V648.964ZM186.855 649.125C186.855 650.004 187.058 650.71 187.463 651.242C187.873 651.774 188.42 652.041 189.104 652.041C189.792 652.041 190.339 651.772 190.744 651.235C191.15 650.693 191.352 649.936 191.352 648.964C191.352 648.095 191.145 647.392 190.73 646.855C190.319 646.313 189.773 646.042 189.089 646.042C188.42 646.042 187.881 646.308 187.47 646.84C187.06 647.373 186.855 648.134 186.855 649.125ZM200.464 645.075V653H199.101V649.917H197.058L195.19 653H193.725L195.717 649.711C195.21 649.526 194.819 649.24 194.546 648.854C194.277 648.464 194.143 648.01 194.143 647.492C194.143 646.77 194.414 646.188 194.956 645.749C195.498 645.305 196.223 645.08 197.131 645.075H200.464ZM195.505 647.507C195.505 647.893 195.637 648.205 195.901 648.444C196.164 648.679 196.513 648.798 196.948 648.803H199.101V646.174H197.153C196.65 646.174 196.25 646.298 195.952 646.547C195.654 646.792 195.505 647.111 195.505 647.507ZM209.113 653H207.758V649.616H204.118V653H202.756V645.075H204.118V648.51H207.758V645.075H209.113V653ZM216.423 645.075H217.778V653H216.423V647.221L212.768 653H211.413V645.075H212.768V650.861L216.423 645.075ZM223.242 653.146C222.168 653.146 221.294 652.795 220.62 652.092C219.946 651.384 219.609 650.439 219.609 649.257V649.008C219.609 648.222 219.758 647.521 220.056 646.906C220.359 646.286 220.778 645.803 221.316 645.456C221.858 645.104 222.443 644.929 223.073 644.929C224.104 644.929 224.904 645.268 225.476 645.947C226.047 646.625 226.333 647.597 226.333 648.862V649.426H220.964C220.984 650.207 221.211 650.839 221.645 651.323C222.085 651.801 222.641 652.041 223.315 652.041C223.794 652.041 224.199 651.943 224.531 651.748C224.863 651.552 225.153 651.293 225.402 650.971L226.23 651.616C225.566 652.636 224.57 653.146 223.242 653.146ZM223.073 646.042C222.526 646.042 222.068 646.242 221.696 646.643C221.325 647.038 221.096 647.595 221.008 648.312H224.978V648.21C224.939 647.521 224.753 646.989 224.421 646.613C224.089 646.232 223.64 646.042 223.073 646.042Z" fill="black"/>
<path d="M66.7186 256.647L156.233 228.571L247.554 256.647L156.232 284.431L66.7186 256.647Z" stroke="black" stroke-width="3"/>
<path d="M132.629 262H131.003V252.49H132.629V262ZM130.871 249.968C130.871 249.704 130.95 249.481 131.108 249.3C131.272 249.118 131.513 249.027 131.829 249.027C132.146 249.027 132.386 249.118 132.55 249.3C132.714 249.481 132.796 249.704 132.796 249.968C132.796 250.231 132.714 250.451 132.55 250.627C132.386 250.803 132.146 250.891 131.829 250.891C131.513 250.891 131.272 250.803 131.108 250.627C130.95 250.451 130.871 250.231 130.871 249.968ZM140.794 256.34L146.296 258.563V260.286L139.106 256.955V255.672L146.296 252.35V254.072L140.794 256.34ZM157.273 262.176C155.984 262.176 154.936 261.754 154.127 260.91C153.318 260.061 152.914 258.927 152.914 257.509V257.21C152.914 256.267 153.093 255.426 153.45 254.688C153.813 253.943 154.317 253.363 154.962 252.947C155.612 252.525 156.315 252.314 157.071 252.314C158.308 252.314 159.269 252.722 159.954 253.536C160.64 254.351 160.982 255.517 160.982 257.034V257.711H154.54C154.563 258.648 154.836 259.407 155.357 259.987C155.885 260.562 156.553 260.849 157.361 260.849C157.936 260.849 158.422 260.731 158.82 260.497C159.219 260.263 159.567 259.952 159.866 259.565L160.859 260.339C160.062 261.563 158.867 262.176 157.273 262.176ZM157.071 253.65C156.415 253.65 155.864 253.891 155.419 254.371C154.974 254.846 154.698 255.514 154.593 256.375H159.356V256.252C159.31 255.426 159.087 254.787 158.688 254.336C158.29 253.879 157.751 253.65 157.071 253.65ZM164.41 252.49L164.463 253.686C165.189 252.771 166.139 252.314 167.311 252.314C169.32 252.314 170.334 253.448 170.352 255.716V262H168.726V255.707C168.72 255.021 168.562 254.515 168.251 254.187C167.946 253.858 167.469 253.694 166.818 253.694C166.291 253.694 165.828 253.835 165.43 254.116C165.031 254.397 164.721 254.767 164.498 255.224V262H162.872V252.49H164.41ZM172.408 257.166C172.408 255.707 172.754 254.535 173.445 253.65C174.137 252.76 175.042 252.314 176.161 252.314C177.274 252.314 178.156 252.695 178.807 253.457V248.5H180.433V262H178.938L178.859 260.98C178.209 261.777 177.304 262.176 176.144 262.176C175.042 262.176 174.143 261.725 173.445 260.822C172.754 259.92 172.408 258.742 172.408 257.289V257.166ZM174.034 257.351C174.034 258.429 174.257 259.272 174.702 259.882C175.147 260.491 175.763 260.796 176.548 260.796C177.579 260.796 178.332 260.333 178.807 259.407V255.039C178.32 254.143 177.573 253.694 176.565 253.694C175.769 253.694 175.147 254.002 174.702 254.617C174.257 255.232 174.034 256.144 174.034 257.351Z" fill="black"/>
<path d="M67.7186 356.647L157.233 328.571L248.554 356.647L157.232 384.431L67.7186 356.647Z" stroke="black" stroke-width="3"/>
<path d="M117.598 362H115.972V352.49H117.598V362ZM115.84 349.968C115.84 349.704 115.919 349.481 116.077 349.3C116.241 349.118 116.481 349.027 116.798 349.027C117.114 349.027 117.354 349.118 117.519 349.3C117.683 349.481 117.765 349.704 117.765 349.968C117.765 350.231 117.683 350.451 117.519 350.627C117.354 350.803 117.114 350.891 116.798 350.891C116.481 350.891 116.241 350.803 116.077 350.627C115.919 350.451 115.84 350.231 115.84 349.968ZM132.108 354.846H124.778V353.431H132.108V354.846ZM132.108 358.493H124.778V357.087H132.108V358.493ZM141.987 354.846H134.657V353.431H141.987V354.846ZM141.987 358.493H134.657V357.087H141.987V358.493ZM152.71 360.849C153.29 360.849 153.797 360.673 154.23 360.321C154.664 359.97 154.904 359.53 154.951 359.003H156.489C156.46 359.548 156.272 360.066 155.927 360.559C155.581 361.051 155.118 361.443 154.538 361.736C153.964 362.029 153.354 362.176 152.71 362.176C151.415 362.176 150.384 361.745 149.616 360.884C148.854 360.017 148.474 358.833 148.474 357.333V357.061C148.474 356.135 148.644 355.312 148.983 354.591C149.323 353.87 149.81 353.311 150.442 352.912C151.081 352.514 151.834 352.314 152.701 352.314C153.768 352.314 154.652 352.634 155.355 353.272C156.064 353.911 156.442 354.74 156.489 355.76H154.951C154.904 355.145 154.67 354.641 154.248 354.248C153.832 353.85 153.316 353.65 152.701 353.65C151.875 353.65 151.233 353.949 150.776 354.547C150.325 355.139 150.1 355.997 150.1 357.122V357.43C150.1 358.525 150.325 359.369 150.776 359.961C151.228 360.553 151.872 360.849 152.71 360.849ZM164.188 361.06C163.556 361.804 162.627 362.176 161.402 362.176C160.389 362.176 159.615 361.883 159.082 361.297C158.555 360.705 158.288 359.832 158.282 358.678V352.49H159.908V358.634C159.908 360.075 160.494 360.796 161.666 360.796C162.908 360.796 163.734 360.333 164.145 359.407V352.49H165.771V362H164.224L164.188 361.06ZM172.846 353.949C172.6 353.908 172.333 353.888 172.046 353.888C170.979 353.888 170.256 354.342 169.875 355.25V362H168.249V352.49H169.831L169.857 353.589C170.391 352.739 171.146 352.314 172.125 352.314C172.441 352.314 172.682 352.355 172.846 352.438V353.949ZM179.886 359.478C179.886 359.038 179.719 358.698 179.385 358.458C179.057 358.212 178.479 358.001 177.653 357.825C176.833 357.649 176.18 357.438 175.693 357.192C175.213 356.946 174.855 356.653 174.621 356.313C174.393 355.974 174.278 355.569 174.278 355.101C174.278 354.321 174.606 353.662 175.263 353.123C175.925 352.584 176.769 352.314 177.794 352.314C178.872 352.314 179.745 352.593 180.413 353.149C181.087 353.706 181.424 354.418 181.424 355.285H179.789C179.789 354.84 179.599 354.456 179.218 354.134C178.843 353.812 178.368 353.65 177.794 353.65C177.202 353.65 176.739 353.779 176.405 354.037C176.071 354.295 175.904 354.632 175.904 355.048C175.904 355.44 176.06 355.736 176.37 355.936C176.681 356.135 177.24 356.325 178.049 356.507C178.863 356.688 179.522 356.905 180.026 357.157C180.53 357.409 180.902 357.714 181.143 358.071C181.389 358.423 181.512 358.854 181.512 359.363C181.512 360.213 181.172 360.896 180.492 361.411C179.812 361.921 178.931 362.176 177.847 362.176C177.085 362.176 176.411 362.041 175.825 361.771C175.239 361.502 174.779 361.127 174.445 360.646C174.117 360.16 173.953 359.636 173.953 359.073H175.579C175.608 359.618 175.825 360.052 176.229 360.374C176.64 360.69 177.179 360.849 177.847 360.849C178.462 360.849 178.954 360.726 179.323 360.479C179.698 360.228 179.886 359.894 179.886 359.478ZM183.199 357.157C183.199 356.226 183.381 355.388 183.744 354.644C184.113 353.899 184.623 353.325 185.273 352.921C185.93 352.517 186.677 352.314 187.515 352.314C188.81 352.314 189.855 352.763 190.652 353.659C191.455 354.556 191.856 355.748 191.856 357.236V357.351C191.856 358.276 191.678 359.108 191.32 359.847C190.969 360.579 190.462 361.15 189.8 361.561C189.144 361.971 188.388 362.176 187.532 362.176C186.243 362.176 185.197 361.728 184.395 360.831C183.598 359.935 183.199 358.748 183.199 357.271V357.157ZM184.834 357.351C184.834 358.405 185.077 359.252 185.563 359.891C186.056 360.529 186.712 360.849 187.532 360.849C188.358 360.849 189.015 360.526 189.501 359.882C189.987 359.231 190.23 358.323 190.23 357.157C190.23 356.114 189.981 355.271 189.483 354.626C188.991 353.976 188.335 353.65 187.515 353.65C186.712 353.65 186.064 353.97 185.572 354.608C185.08 355.247 184.834 356.161 184.834 357.351ZM198.492 353.949C198.246 353.908 197.979 353.888 197.692 353.888C196.626 353.888 195.902 354.342 195.521 355.25V362H193.896V352.49H195.478L195.504 353.589C196.037 352.739 196.793 352.314 197.771 352.314C198.088 352.314 198.328 352.355 198.492 352.438V353.949Z" fill="black"/>
<path d="M67.7186 497.647L157.233 469.571L248.554 497.647L157.232 525.431L67.7186 497.647Z" stroke="black" stroke-width="3"/>
<path d="M110.987 504H109.542V495.547H110.987V504ZM109.425 493.305C109.425 493.07 109.495 492.872 109.636 492.711C109.782 492.549 109.995 492.469 110.276 492.469C110.558 492.469 110.771 492.549 110.917 492.711C111.063 492.872 111.136 493.07 111.136 493.305C111.136 493.539 111.063 493.734 110.917 493.891C110.771 494.047 110.558 494.125 110.276 494.125C109.995 494.125 109.782 494.047 109.636 493.891C109.495 493.734 109.425 493.539 109.425 493.305ZM118.245 498.969L123.136 500.945V502.477L116.745 499.516V498.375L123.136 495.422V496.953L118.245 498.969ZM136.526 499.867C136.526 501.154 136.232 502.19 135.644 502.977C135.055 503.763 134.258 504.156 133.253 504.156C132.227 504.156 131.42 503.831 130.831 503.18V507.25H129.386V495.547H130.706L130.776 496.484C131.365 495.755 132.183 495.391 133.229 495.391C134.245 495.391 135.047 495.773 135.636 496.539C136.229 497.305 136.526 498.37 136.526 499.734V499.867ZM135.081 499.703C135.081 498.75 134.878 497.997 134.472 497.445C134.065 496.893 133.508 496.617 132.8 496.617C131.925 496.617 131.269 497.005 130.831 497.781V501.82C131.263 502.591 131.925 502.977 132.815 502.977C133.508 502.977 134.058 502.703 134.464 502.156C134.875 501.604 135.081 500.786 135.081 499.703ZM143.589 504C143.506 503.833 143.438 503.536 143.386 503.109C142.714 503.807 141.912 504.156 140.979 504.156C140.146 504.156 139.461 503.922 138.925 503.453C138.394 502.979 138.128 502.38 138.128 501.656C138.128 500.776 138.461 500.094 139.128 499.609C139.8 499.12 140.743 498.875 141.956 498.875H143.362V498.211C143.362 497.706 143.211 497.305 142.909 497.008C142.607 496.706 142.162 496.555 141.573 496.555C141.058 496.555 140.625 496.685 140.276 496.945C139.927 497.206 139.753 497.521 139.753 497.891H138.3C138.3 497.469 138.448 497.062 138.745 496.672C139.047 496.276 139.453 495.964 139.964 495.734C140.479 495.505 141.045 495.391 141.659 495.391C142.633 495.391 143.396 495.635 143.948 496.125C144.5 496.609 144.787 497.279 144.808 498.133V502.023C144.808 502.799 144.907 503.417 145.104 503.875V504H143.589ZM141.19 502.898C141.644 502.898 142.073 502.781 142.479 502.547C142.886 502.312 143.18 502.008 143.362 501.633V499.898H142.229C140.459 499.898 139.573 500.417 139.573 501.453C139.573 501.906 139.724 502.26 140.026 502.516C140.328 502.771 140.716 502.898 141.19 502.898ZM151.159 496.844C150.94 496.807 150.703 496.789 150.448 496.789C149.5 496.789 148.857 497.193 148.519 498V504H147.073V495.547H148.479L148.503 496.523C148.977 495.768 149.649 495.391 150.519 495.391C150.8 495.391 151.013 495.427 151.159 495.5V496.844ZM157.401 504C157.318 503.833 157.25 503.536 157.198 503.109C156.526 503.807 155.724 504.156 154.792 504.156C153.959 504.156 153.274 503.922 152.737 503.453C152.206 502.979 151.94 502.38 151.94 501.656C151.94 500.776 152.274 500.094 152.94 499.609C153.612 499.12 154.555 498.875 155.769 498.875H157.175V498.211C157.175 497.706 157.024 497.305 156.722 497.008C156.42 496.706 155.974 496.555 155.386 496.555C154.87 496.555 154.438 496.685 154.089 496.945C153.74 497.206 153.565 497.521 153.565 497.891H152.112C152.112 497.469 152.261 497.062 152.558 496.672C152.86 496.276 153.266 495.964 153.776 495.734C154.292 495.505 154.857 495.391 155.472 495.391C156.446 495.391 157.209 495.635 157.761 496.125C158.313 496.609 158.599 497.279 158.62 498.133V502.023C158.62 502.799 158.719 503.417 158.917 503.875V504H157.401ZM155.003 502.898C155.456 502.898 155.886 502.781 156.292 502.547C156.698 502.312 156.993 502.008 157.175 501.633V499.898H156.042C154.271 499.898 153.386 500.417 153.386 501.453C153.386 501.906 153.537 502.26 153.839 502.516C154.141 502.771 154.529 502.898 155.003 502.898ZM162.245 495.547L162.284 496.484C162.904 495.755 163.74 495.391 164.792 495.391C165.974 495.391 166.779 495.844 167.206 496.75C167.487 496.344 167.852 496.016 168.3 495.766C168.753 495.516 169.287 495.391 169.901 495.391C171.756 495.391 172.698 496.372 172.729 498.336V504H171.284V498.422C171.284 497.818 171.146 497.367 170.87 497.07C170.594 496.768 170.131 496.617 169.479 496.617C168.943 496.617 168.498 496.779 168.144 497.102C167.789 497.419 167.584 497.849 167.526 498.391V504H166.073V498.461C166.073 497.232 165.472 496.617 164.269 496.617C163.321 496.617 162.672 497.021 162.323 497.828V504H160.878V495.547H162.245ZM177.925 499.758H174.112V498.578H177.925V499.758ZM184.456 498.922L179.292 496.898V495.414L185.964 498.367V499.508L179.292 502.469V500.969L184.456 498.922ZM192.62 501.758C192.62 501.367 192.472 501.065 192.175 500.852C191.883 500.633 191.37 500.445 190.636 500.289C189.907 500.133 189.326 499.945 188.894 499.727C188.466 499.508 188.149 499.247 187.94 498.945C187.737 498.643 187.636 498.284 187.636 497.867C187.636 497.174 187.927 496.589 188.511 496.109C189.099 495.63 189.849 495.391 190.761 495.391C191.719 495.391 192.495 495.638 193.089 496.133C193.688 496.628 193.987 497.26 193.987 498.031H192.534C192.534 497.635 192.365 497.294 192.026 497.008C191.693 496.721 191.271 496.578 190.761 496.578C190.235 496.578 189.823 496.693 189.526 496.922C189.229 497.151 189.081 497.451 189.081 497.82C189.081 498.169 189.219 498.432 189.495 498.609C189.771 498.786 190.269 498.956 190.987 499.117C191.711 499.279 192.297 499.471 192.745 499.695C193.193 499.919 193.524 500.19 193.737 500.508C193.956 500.82 194.065 501.203 194.065 501.656C194.065 502.411 193.763 503.018 193.159 503.477C192.555 503.93 191.771 504.156 190.808 504.156C190.131 504.156 189.532 504.036 189.011 503.797C188.49 503.557 188.081 503.224 187.784 502.797C187.493 502.365 187.347 501.898 187.347 501.398H188.792C188.818 501.883 189.011 502.268 189.37 502.555C189.735 502.836 190.214 502.977 190.808 502.977C191.354 502.977 191.792 502.867 192.12 502.648C192.453 502.424 192.62 502.128 192.62 501.758ZM197.519 504H196.073V495.547H197.519V504ZM195.956 493.305C195.956 493.07 196.026 492.872 196.167 492.711C196.313 492.549 196.526 492.469 196.808 492.469C197.089 492.469 197.302 492.549 197.448 492.711C197.594 492.872 197.667 493.07 197.667 493.305C197.667 493.539 197.594 493.734 197.448 493.891C197.302 494.047 197.089 494.125 196.808 494.125C196.526 494.125 196.313 494.047 196.167 493.891C196.026 493.734 195.956 493.539 195.956 493.305ZM201.198 502.82H206.144V504H199.433V502.938L204.097 496.742H199.503V495.547H205.909V496.57L201.198 502.82ZM211.159 504.156C210.013 504.156 209.081 503.781 208.362 503.031C207.644 502.276 207.284 501.268 207.284 500.008V499.742C207.284 498.904 207.443 498.156 207.761 497.5C208.084 496.839 208.532 496.323 209.104 495.953C209.683 495.578 210.308 495.391 210.979 495.391C212.078 495.391 212.933 495.753 213.542 496.477C214.151 497.201 214.456 498.237 214.456 499.586V500.188H208.729C208.75 501.021 208.993 501.695 209.456 502.211C209.925 502.721 210.519 502.977 211.237 502.977C211.748 502.977 212.18 502.872 212.534 502.664C212.888 502.456 213.198 502.18 213.464 501.836L214.347 502.523C213.638 503.612 212.576 504.156 211.159 504.156ZM210.979 496.578C210.396 496.578 209.907 496.792 209.511 497.219C209.115 497.641 208.87 498.234 208.776 499H213.011V498.891C212.969 498.156 212.771 497.589 212.417 497.188C212.063 496.781 211.584 496.578 210.979 496.578Z" fill="black"/>
<rect x="255.183" y="289.5" width="130" height="36" rx="18" stroke="black" stroke-width="3"/>
<path d="M303.395 306.281H302.341V309.882H300.887V301.429H302.341V305.007H303.286L306.13 301.429H307.88L304.536 305.492L308.161 309.882H306.325L303.395 306.281ZM308.848 305.578C308.848 304.75 309.01 304.005 309.333 303.343C309.661 302.682 310.114 302.172 310.692 301.812C311.275 301.453 311.94 301.273 312.684 301.273C313.835 301.273 314.765 301.672 315.473 302.468C316.187 303.265 316.544 304.325 316.544 305.648V305.75C316.544 306.573 316.385 307.312 316.067 307.968C315.755 308.619 315.304 309.127 314.716 309.492C314.132 309.856 313.46 310.039 312.7 310.039C311.554 310.039 310.624 309.64 309.911 308.843C309.203 308.047 308.848 306.992 308.848 305.679V305.578ZM310.302 305.75C310.302 306.687 310.518 307.44 310.95 308.007C311.387 308.575 311.971 308.859 312.7 308.859C313.434 308.859 314.018 308.573 314.45 308C314.882 307.422 315.098 306.614 315.098 305.578C315.098 304.651 314.877 303.901 314.434 303.328C313.997 302.75 313.414 302.461 312.684 302.461C311.971 302.461 311.395 302.744 310.958 303.312C310.52 303.88 310.302 304.692 310.302 305.75ZM325.262 309.882H323.817V306.273H319.934V309.882H318.481V301.429H319.934V305.093H323.817V301.429H325.262V309.882ZM331.098 310.039C329.953 310.039 329.02 309.664 328.302 308.914C327.583 308.158 327.223 307.151 327.223 305.89V305.625C327.223 304.786 327.382 304.039 327.7 303.382C328.023 302.721 328.471 302.205 329.044 301.836C329.622 301.461 330.247 301.273 330.919 301.273C332.018 301.273 332.872 301.635 333.481 302.359C334.091 303.083 334.395 304.119 334.395 305.468V306.07H328.669C328.69 306.903 328.932 307.578 329.395 308.093C329.864 308.604 330.458 308.859 331.177 308.859C331.687 308.859 332.119 308.755 332.473 308.547C332.828 308.338 333.137 308.062 333.403 307.718L334.286 308.406C333.578 309.494 332.515 310.039 331.098 310.039ZM330.919 302.461C330.335 302.461 329.846 302.674 329.45 303.101C329.054 303.523 328.809 304.117 328.716 304.882H332.95V304.773C332.908 304.039 332.71 303.471 332.356 303.07C332.002 302.664 331.523 302.461 330.919 302.461ZM336.2 301.429H337.653V308.703H341.544V301.429H342.989V308.703H343.997L343.856 312.39H342.559V309.882H336.2V301.429Z" fill="black"/>
<path d="M321.183 257L322.683 257L322.683 255.5L321.183 255.5L321.183 257ZM321.182 288L329.843 273L312.522 273L321.182 288ZM242.682 258.5L321.183 258.5L321.183 255.5L242.682 255.5L242.682 258.5ZM319.683 257L319.682 274.5L322.682 274.5L322.683 257L319.683 257Z" fill="black"/>
<path d="M323.773 356.049L325.273 356.049L325.273 354.549L323.773 354.549L323.773 356.049ZM323.773 380.5L332.433 365.5L315.113 365.5L323.773 380.5ZM245.273 357.549L323.773 357.549L323.773 354.549L245.273 354.549L245.273 357.549ZM322.273 356.049L322.273 367L325.273 367L325.273 356.049L322.273 356.049Z" fill="black"/>
<path d="M155.683 327L164.343 312H147.022L155.683 327ZM154.183 284V313.5H157.183V284H154.183Z" fill="black"/>
<path d="M156.683 468L165.521 453.104L148.202 452.898L156.683 468ZM156.183 383.982L155.343 454.483L158.343 454.519L159.183 384.018L156.183 383.982Z" fill="black"/>
<path d="M156.683 553L165.343 538H148.022L156.683 553ZM155.183 524V539.5H158.183V524H155.183Z" fill="black"/>
<path d="M156.683 614L165.343 599H148.022L156.683 614ZM155.183 585V600.5H158.183V585H155.183Z" fill="black"/>
<path d="M157.683 692L166.343 677H149.022L157.683 692ZM156.183 663V678.5H159.183V663H156.183Z" fill="black"/>
<path d="M157.683 229L166.343 214H149.022L157.683 229ZM156.183 189V215.5H159.183V189H156.183Z" fill="black"/>
<path d="M155.683 151L164.343 136H147.022L155.683 151ZM154.183 127V137.5H157.183V127H154.183Z" fill="black"/>
<path d="M156.683 77L165.343 62H148.022L156.683 77ZM155.183 53V63.5H158.183V53H155.183Z" fill="black"/>
<path d="M324.682 431L324.683 447L156.682 447" stroke="black" stroke-width="3"/>
<path d="M324.683 498L326.183 498L326.183 496.5L324.683 496.5L324.683 498ZM324.683 519.5L333.343 504.5L316.022 504.5L324.683 519.5ZM245.683 499.5L324.683 499.5L324.683 496.5L245.683 496.5L245.683 499.5ZM323.183 498L323.183 506L326.183 506L326.183 498L323.183 498Z" fill="black"/>
<path d="M279.171 539.125C279.171 540.332 278.895 541.303 278.343 542.041C277.792 542.778 277.044 543.146 276.102 543.146C275.14 543.146 274.383 542.841 273.832 542.231V546.047H272.477V535.075H273.714L273.78 535.954C274.332 535.271 275.099 534.929 276.08 534.929C277.032 534.929 277.784 535.288 278.336 536.005C278.893 536.723 279.171 537.722 279.171 539.001V539.125ZM277.816 538.972C277.816 538.078 277.625 537.373 277.245 536.855C276.864 536.337 276.341 536.079 275.677 536.079C274.857 536.079 274.242 536.442 273.832 537.17V540.957C274.237 541.679 274.857 542.041 275.692 542.041C276.341 542.041 276.856 541.784 277.237 541.271C277.623 540.754 277.816 539.987 277.816 538.972ZM285.792 543C285.714 542.844 285.65 542.565 285.602 542.165C284.972 542.819 284.22 543.146 283.346 543.146C282.564 543.146 281.922 542.927 281.419 542.487C280.921 542.043 280.672 541.481 280.672 540.803C280.672 539.978 280.985 539.338 281.61 538.884C282.24 538.425 283.124 538.195 284.261 538.195H285.58V537.573C285.58 537.099 285.438 536.723 285.155 536.445C284.872 536.162 284.454 536.02 283.902 536.02C283.419 536.02 283.014 536.142 282.687 536.386C282.359 536.63 282.196 536.926 282.196 537.272H280.833C280.833 536.877 280.973 536.496 281.251 536.13C281.534 535.759 281.915 535.466 282.394 535.251C282.877 535.036 283.407 534.929 283.983 534.929C284.896 534.929 285.611 535.158 286.129 535.617C286.646 536.071 286.915 536.699 286.935 537.5V541.147C286.935 541.875 287.027 542.453 287.213 542.883V543H285.792ZM283.543 541.967C283.968 541.967 284.371 541.857 284.752 541.638C285.133 541.418 285.409 541.132 285.58 540.781V539.155H284.518C282.857 539.155 282.027 539.641 282.027 540.612C282.027 541.037 282.169 541.369 282.452 541.608C282.735 541.848 283.099 541.967 283.543 541.967ZM292.889 536.291C292.684 536.257 292.462 536.24 292.223 536.24C291.334 536.24 290.731 536.618 290.414 537.375V543H289.059V535.075H290.377L290.399 535.991C290.843 535.283 291.473 534.929 292.289 534.929C292.552 534.929 292.752 534.963 292.889 535.031V536.291ZM298.741 543C298.663 542.844 298.6 542.565 298.551 542.165C297.921 542.819 297.169 543.146 296.295 543.146C295.514 543.146 294.872 542.927 294.369 542.487C293.871 542.043 293.622 541.481 293.622 540.803C293.622 539.978 293.934 539.338 294.559 538.884C295.189 538.425 296.073 538.195 297.21 538.195H298.529V537.573C298.529 537.099 298.387 536.723 298.104 536.445C297.821 536.162 297.403 536.02 296.852 536.02C296.368 536.02 295.963 536.142 295.636 536.386C295.309 536.63 295.145 536.926 295.145 537.272H293.783C293.783 536.877 293.922 536.496 294.2 536.13C294.483 535.759 294.864 535.466 295.343 535.251C295.826 535.036 296.356 534.929 296.932 534.929C297.845 534.929 298.561 535.158 299.078 535.617C299.596 536.071 299.864 536.699 299.884 537.5V541.147C299.884 541.875 299.977 542.453 300.162 542.883V543H298.741ZM296.493 541.967C296.917 541.967 297.32 541.857 297.701 541.638C298.082 541.418 298.358 541.132 298.529 540.781V539.155H297.467C295.807 539.155 294.977 539.641 294.977 540.612C294.977 541.037 295.118 541.369 295.401 541.608C295.685 541.848 296.048 541.967 296.493 541.967ZM303.282 535.075L303.319 535.954C303.9 535.271 304.684 534.929 305.67 534.929C306.778 534.929 307.533 535.354 307.933 536.203C308.197 535.822 308.539 535.515 308.958 535.28C309.383 535.046 309.884 534.929 310.46 534.929C312.198 534.929 313.082 535.849 313.111 537.69V543H311.756V537.771C311.756 537.204 311.627 536.782 311.368 536.503C311.109 536.22 310.675 536.079 310.064 536.079C309.562 536.079 309.144 536.23 308.812 536.533C308.48 536.831 308.287 537.233 308.233 537.741V543H306.871V537.807C306.871 536.655 306.307 536.079 305.179 536.079C304.291 536.079 303.683 536.457 303.355 537.214V543H302V535.075H303.282ZM317.982 539.023H314.408V537.917H317.982V539.023ZM324.105 538.239L319.264 536.342V534.951L325.519 537.719V538.789L319.264 541.564V540.158L324.105 538.239ZM332.037 543C331.959 542.844 331.896 542.565 331.847 542.165C331.217 542.819 330.465 543.146 329.591 543.146C328.81 543.146 328.167 542.927 327.665 542.487C327.167 542.043 326.917 541.481 326.917 540.803C326.917 539.978 327.23 539.338 327.855 538.884C328.485 538.425 329.369 538.195 330.506 538.195H331.825V537.573C331.825 537.099 331.683 536.723 331.4 536.445C331.117 536.162 330.699 536.02 330.147 536.02C329.664 536.02 329.259 536.142 328.932 536.386C328.604 536.63 328.441 536.926 328.441 537.272H327.079C327.079 536.877 327.218 536.496 327.496 536.13C327.779 535.759 328.16 535.466 328.639 535.251C329.122 535.036 329.652 534.929 330.228 534.929C331.141 534.929 331.856 535.158 332.374 535.617C332.892 536.071 333.16 536.699 333.18 537.5V541.147C333.18 541.875 333.272 542.453 333.458 542.883V543H332.037ZM329.789 541.967C330.213 541.967 330.616 541.857 330.997 541.638C331.378 541.418 331.654 541.132 331.825 540.781V539.155H330.763C329.103 539.155 328.272 539.641 328.272 540.612C328.272 541.037 328.414 541.369 328.697 541.608C328.98 541.848 329.344 541.967 329.789 541.967ZM339.134 536.291C338.929 536.257 338.707 536.24 338.468 536.24C337.579 536.24 336.976 536.618 336.659 537.375V543H335.304V535.075H336.622L336.644 535.991C337.088 535.283 337.718 534.929 338.534 534.929C338.797 534.929 338.998 534.963 339.134 535.031V536.291ZM344.217 536.291C344.012 536.257 343.79 536.24 343.551 536.24C342.662 536.24 342.059 536.618 341.742 537.375V543H340.387V535.075H341.705L341.727 535.991C342.171 535.283 342.801 534.929 343.617 534.929C343.88 534.929 344.081 534.963 344.217 535.031V536.291ZM350.069 543C349.991 542.844 349.928 542.565 349.879 542.165C349.249 542.819 348.497 543.146 347.623 543.146C346.842 543.146 346.2 542.927 345.697 542.487C345.199 542.043 344.95 541.481 344.95 540.803C344.95 539.978 345.262 539.338 345.887 538.884C346.517 538.425 347.401 538.195 348.539 538.195H349.857V537.573C349.857 537.099 349.715 536.723 349.432 536.445C349.149 536.162 348.731 536.02 348.18 536.02C347.696 536.02 347.291 536.142 346.964 536.386C346.637 536.63 346.473 536.926 346.473 537.272H345.111C345.111 536.877 345.25 536.496 345.528 536.13C345.812 535.759 346.192 535.466 346.671 535.251C347.154 535.036 347.684 534.929 348.26 534.929C349.173 534.929 349.889 535.158 350.406 535.617C350.924 536.071 351.192 536.699 351.212 537.5V541.147C351.212 541.875 351.305 542.453 351.49 542.883V543H350.069ZM347.821 541.967C348.246 541.967 348.648 541.857 349.029 541.638C349.41 541.418 349.686 541.132 349.857 540.781V539.155H348.795C347.135 539.155 346.305 539.641 346.305 540.612C346.305 541.037 346.446 541.369 346.729 541.608C347.013 541.848 347.376 541.967 347.821 541.967ZM355.812 541.015L357.657 535.075H359.107L355.921 544.223C355.428 545.542 354.645 546.201 353.57 546.201L353.314 546.179L352.809 546.083V544.985L353.175 545.014C353.634 545.014 353.99 544.921 354.244 544.736C354.503 544.55 354.715 544.211 354.881 543.718L355.182 542.912L352.354 535.075H353.834L355.812 541.015ZM363.128 531.926H361.729V544.172H363.128V545.285H360.367V530.812H363.128V531.926ZM365.78 543H364.425V535.075H365.78V543ZM364.315 532.973C364.315 532.753 364.381 532.568 364.513 532.417C364.649 532.265 364.85 532.189 365.113 532.189C365.377 532.189 365.577 532.265 365.714 532.417C365.851 532.568 365.919 532.753 365.919 532.973C365.919 533.193 365.851 533.376 365.714 533.522C365.577 533.669 365.377 533.742 365.113 533.742C364.85 533.742 364.649 533.669 364.513 533.522C364.381 533.376 364.315 533.193 364.315 532.973ZM366.996 530.812H369.764V545.285H366.996V544.172H368.409V531.926H366.996V530.812Z" fill="black"/>
<path d="M121.6 563.611L122.376 564.138C121.922 564.758 121.688 565.427 121.673 566.145V567.141H120.325V566.292C120.325 565.793 120.442 565.3 120.677 564.812C120.916 564.324 121.224 563.923 121.6 563.611ZM123.907 563.611L124.683 564.138C124.229 564.758 123.995 565.427 123.98 566.145V567.141H122.632V566.292C122.632 565.793 122.75 565.3 122.984 564.812C123.223 564.324 123.531 563.923 123.907 563.611ZM134.249 575H132.835V565.493H127.576V575H126.17V564.336H134.249V575ZM140.474 570.525L142.928 564.336H144.561L140.789 573.22C140.535 573.787 140.298 574.189 140.079 574.429C139.859 574.663 139.6 574.844 139.302 574.971C139.009 575.093 138.641 575.154 138.196 575.154C137.811 575.154 137.564 575.132 137.457 575.088L137.5 573.975L138.167 574.004C138.68 574.004 139.061 573.757 139.31 573.264L139.493 572.883L139.771 572.231L136.138 564.336H137.713L140.474 570.525ZM153.914 571.616C153.782 572.744 153.365 573.616 152.662 574.231C151.963 574.841 151.033 575.146 149.871 575.146C148.611 575.146 147.601 574.695 146.839 573.792C146.082 572.888 145.704 571.68 145.704 570.166V569.141C145.704 568.149 145.879 567.278 146.231 566.526C146.587 565.774 147.09 565.198 147.74 564.797C148.389 564.392 149.141 564.189 149.996 564.189C151.128 564.189 152.037 564.507 152.72 565.142C153.404 565.771 153.802 566.646 153.914 567.764H152.5C152.378 566.914 152.112 566.299 151.702 565.918C151.297 565.537 150.728 565.347 149.996 565.347C149.097 565.347 148.392 565.679 147.879 566.343C147.371 567.007 147.117 567.952 147.117 569.177V570.21C147.117 571.367 147.359 572.288 147.842 572.971C148.326 573.655 149.002 573.997 149.871 573.997C150.652 573.997 151.25 573.821 151.666 573.469C152.085 573.113 152.364 572.495 152.5 571.616H153.914ZM162.989 565.493H159.561V575H158.162V565.493H154.742V564.336H162.989V565.493ZM172.569 570.012C172.569 571.057 172.393 571.97 172.042 572.751C171.69 573.528 171.192 574.121 170.547 574.531C169.903 574.941 169.151 575.146 168.292 575.146C167.452 575.146 166.707 574.941 166.058 574.531C165.408 574.116 164.903 573.528 164.542 572.766C164.185 572 164.002 571.113 163.992 570.107V569.338C163.992 568.313 164.17 567.407 164.527 566.621C164.883 565.835 165.386 565.234 166.036 564.819C166.69 564.399 167.437 564.189 168.277 564.189C169.131 564.189 169.883 564.397 170.533 564.812C171.187 565.222 171.69 565.82 172.042 566.606C172.393 567.388 172.569 568.298 172.569 569.338V570.012ZM171.17 569.324C171.17 568.059 170.916 567.09 170.408 566.416C169.9 565.737 169.19 565.398 168.277 565.398C167.388 565.398 166.688 565.737 166.175 566.416C165.667 567.09 165.406 568.027 165.391 569.229V570.012C165.391 571.238 165.647 572.202 166.16 572.905C166.678 573.604 167.388 573.953 168.292 573.953C169.2 573.953 169.903 573.623 170.401 572.964C170.899 572.3 171.155 571.35 171.17 570.115V569.324ZM174.649 567.339L173.88 566.812C174.334 566.177 174.568 565.508 174.583 564.805V563.75H175.923V564.702C175.918 565.19 175.796 565.679 175.557 566.167C175.323 566.65 175.02 567.041 174.649 567.339ZM176.897 567.339L176.128 566.812C176.583 566.177 176.817 565.508 176.832 564.805V563.75H178.172V564.702C178.167 565.19 178.045 565.679 177.806 566.167C177.571 566.65 177.269 567.041 176.897 567.339Z" fill="black"/>
<path d="M326.683 635L326.683 636.5L328.183 636.5L328.183 635L326.683 635ZM235.683 635L250.683 643.66L250.683 626.34L235.683 635ZM325.183 560L325.183 635L328.183 635L328.183 560L325.183 560ZM326.683 633.5L249.183 633.5L249.183 636.5L326.683 636.5L326.683 633.5Z" fill="black"/>
<path d="M158.682 753.5L158.682 755L160.182 755L160.182 753.5L158.682 753.5ZM29.1825 753.5L27.6825 753.5L27.6825 755L29.1825 755L29.1825 753.5ZM29.1825 203.5L29.1825 202L27.6825 202L27.6825 203.5L29.1825 203.5ZM156.683 203.5L141.683 194.84L141.683 212.16L156.683 203.5ZM157.183 731L157.182 753.5L160.182 753.5L160.183 731L157.183 731ZM158.682 752L29.1825 752L29.1825 755L158.682 755L158.682 752ZM30.6825 753.5L30.6825 203.5L27.6825 203.5L27.6825 753.5L30.6825 753.5ZM29.1825 205L143.183 205L143.183 202L29.1825 202L29.1825 205Z" fill="black"/>
<path d="M174.354 301.894L174.822 301.315C175.35 300.632 175.65 299.606 175.723 298.239L175.848 295.075H180.953V301.894H181.971V305.329H180.616V303H175.086V305.329H173.731L173.738 301.894H174.354ZM175.958 301.894H179.598V296.328H177.159L177.078 298.217C176.995 299.794 176.622 301.02 175.958 301.894ZM188.365 303C188.287 302.844 188.223 302.565 188.174 302.165C187.544 302.819 186.792 303.146 185.918 303.146C185.137 303.146 184.495 302.927 183.992 302.487C183.494 302.043 183.245 301.481 183.245 300.803C183.245 299.978 183.558 299.338 184.183 298.884C184.812 298.425 185.696 298.195 186.834 298.195H188.152V297.573C188.152 297.099 188.011 296.723 187.728 296.445C187.444 296.162 187.027 296.02 186.475 296.02C185.992 296.02 185.586 296.142 185.259 296.386C184.932 296.63 184.769 296.926 184.769 297.272H183.406C183.406 296.877 183.545 296.496 183.824 296.13C184.107 295.759 184.488 295.466 184.966 295.251C185.45 295.036 185.979 294.929 186.556 294.929C187.469 294.929 188.184 295.158 188.702 295.617C189.219 296.071 189.488 296.699 189.507 297.5V301.147C189.507 301.875 189.6 302.453 189.786 302.883V303H188.365ZM186.116 301.967C186.541 301.967 186.944 301.857 187.325 301.638C187.706 301.418 187.981 301.132 188.152 300.781V299.155H187.09C185.43 299.155 184.6 299.641 184.6 300.612C184.6 301.037 184.742 301.369 185.025 301.608C185.308 301.848 185.672 301.967 186.116 301.967Z" fill="black"/>
<path d="M255.354 484.894L255.822 484.315C256.35 483.632 256.65 482.606 256.723 481.239L256.848 478.075H261.953V484.894H262.971V488.329H261.616V486H256.086V488.329H254.731L254.738 484.894H255.354ZM256.958 484.894H260.598V479.328H258.159L258.078 481.217C257.995 482.794 257.622 484.02 256.958 484.894ZM269.365 486C269.287 485.844 269.223 485.565 269.174 485.165C268.544 485.819 267.792 486.146 266.918 486.146C266.137 486.146 265.495 485.927 264.992 485.487C264.494 485.043 264.245 484.481 264.245 483.803C264.245 482.978 264.558 482.338 265.183 481.884C265.812 481.425 266.696 481.195 267.834 481.195H269.152V480.573C269.152 480.099 269.011 479.723 268.728 479.445C268.444 479.162 268.027 479.02 267.475 479.02C266.992 479.02 266.586 479.142 266.259 479.386C265.932 479.63 265.769 479.926 265.769 480.272H264.406C264.406 479.877 264.545 479.496 264.824 479.13C265.107 478.759 265.488 478.466 265.966 478.251C266.45 478.036 266.979 477.929 267.556 477.929C268.469 477.929 269.184 478.158 269.702 478.617C270.219 479.071 270.488 479.699 270.507 480.5V484.147C270.507 484.875 270.6 485.453 270.786 485.883V486H269.365ZM267.116 484.967C267.541 484.967 267.944 484.857 268.325 484.638C268.706 484.418 268.981 484.132 269.152 483.781V482.155H268.09C266.43 482.155 265.6 482.641 265.6 483.612C265.6 484.037 265.742 484.369 266.025 484.608C266.308 484.848 266.672 484.967 267.116 484.967Z" fill="black"/>
<path d="M257.354 368.894L257.822 368.315C258.35 367.632 258.65 366.606 258.723 365.239L258.848 362.075H263.953V368.894H264.971V372.329H263.616V370H258.086V372.329H256.731L256.738 368.894H257.354ZM258.958 368.894H262.598V363.328H260.159L260.078 365.217C259.995 366.794 259.622 368.02 258.958 368.894ZM271.365 370C271.287 369.844 271.223 369.565 271.174 369.165C270.544 369.819 269.792 370.146 268.918 370.146C268.137 370.146 267.495 369.927 266.992 369.487C266.494 369.043 266.245 368.481 266.245 367.803C266.245 366.978 266.558 366.338 267.183 365.884C267.812 365.425 268.696 365.195 269.834 365.195H271.152V364.573C271.152 364.099 271.011 363.723 270.728 363.445C270.444 363.162 270.027 363.02 269.475 363.02C268.992 363.02 268.586 363.142 268.259 363.386C267.932 363.63 267.769 363.926 267.769 364.272H266.406C266.406 363.877 266.545 363.496 266.824 363.13C267.107 362.759 267.488 362.466 267.966 362.251C268.45 362.036 268.979 361.929 269.556 361.929C270.469 361.929 271.184 362.158 271.702 362.617C272.219 363.071 272.488 363.699 272.507 364.5V368.147C272.507 368.875 272.6 369.453 272.786 369.883V370H271.365ZM269.116 368.967C269.541 368.967 269.944 368.857 270.325 368.638C270.706 368.418 270.981 368.132 271.152 367.781V366.155H270.09C268.43 366.155 267.6 366.641 267.6 367.612C267.6 368.037 267.742 368.369 268.025 368.608C268.308 368.848 268.672 368.967 269.116 368.967Z" fill="black"/>
<path d="M258.635 241H257.28V237.616H253.64V241H252.277V233.075H253.64V236.51H257.28V233.075H258.635V241ZM264.106 241.146C263.032 241.146 262.158 240.795 261.484 240.092C260.81 239.384 260.473 238.439 260.473 237.257V237.008C260.473 236.222 260.622 235.521 260.92 234.906C261.223 234.286 261.643 233.803 262.18 233.456C262.722 233.104 263.308 232.929 263.938 232.929C264.968 232.929 265.769 233.268 266.34 233.947C266.911 234.625 267.197 235.597 267.197 236.862V237.426H261.828C261.848 238.207 262.075 238.839 262.509 239.323C262.949 239.801 263.505 240.041 264.179 240.041C264.658 240.041 265.063 239.943 265.395 239.748C265.727 239.552 266.018 239.293 266.267 238.971L267.094 239.616C266.43 240.636 265.434 241.146 264.106 241.146ZM263.938 234.042C263.391 234.042 262.932 234.242 262.561 234.643C262.189 235.038 261.96 235.595 261.872 236.312H265.842V236.21C265.803 235.521 265.617 234.989 265.285 234.613C264.953 234.232 264.504 234.042 263.938 234.042ZM274.572 234.174H271.914V241H270.559V234.174H267.951V233.075H274.572V234.174Z" fill="black"/>
<path d="M177.635 398H176.28V394.616H172.64V398H171.277V390.075H172.64V393.51H176.28V390.075H177.635V398ZM183.106 398.146C182.032 398.146 181.158 397.795 180.484 397.092C179.81 396.384 179.473 395.439 179.473 394.257V394.008C179.473 393.222 179.622 392.521 179.92 391.906C180.223 391.286 180.643 390.803 181.18 390.456C181.722 390.104 182.308 389.929 182.938 389.929C183.968 389.929 184.769 390.268 185.34 390.947C185.911 391.625 186.197 392.597 186.197 393.862V394.426H180.828C180.848 395.207 181.075 395.839 181.509 396.323C181.949 396.801 182.505 397.041 183.179 397.041C183.658 397.041 184.063 396.943 184.395 396.748C184.727 396.552 185.018 396.293 185.267 395.971L186.094 396.616C185.43 397.636 184.434 398.146 183.106 398.146ZM182.938 391.042C182.391 391.042 181.932 391.242 181.561 391.643C181.189 392.038 180.96 392.595 180.872 393.312H184.842V393.21C184.803 392.521 184.617 391.989 184.285 391.613C183.953 391.232 183.504 391.042 182.938 391.042ZM193.572 391.174H190.914V398H189.559V391.174H186.951V390.075H193.572V391.174Z" fill="black"/>
<path d="M178.635 536H177.28V532.616H173.64V536H172.277V528.075H173.64V531.51H177.28V528.075H178.635V536ZM184.106 536.146C183.032 536.146 182.158 535.795 181.484 535.092C180.81 534.384 180.473 533.439 180.473 532.257V532.008C180.473 531.222 180.622 530.521 180.92 529.906C181.223 529.286 181.643 528.803 182.18 528.456C182.722 528.104 183.308 527.929 183.938 527.929C184.968 527.929 185.769 528.268 186.34 528.947C186.911 529.625 187.197 530.597 187.197 531.862V532.426H181.828C181.848 533.207 182.075 533.839 182.509 534.323C182.949 534.801 183.505 535.041 184.179 535.041C184.658 535.041 185.063 534.943 185.395 534.748C185.727 534.552 186.018 534.293 186.267 533.971L187.094 534.616C186.43 535.636 185.434 536.146 184.106 536.146ZM183.938 529.042C183.391 529.042 182.932 529.242 182.561 529.643C182.189 530.038 181.96 530.595 181.872 531.312H185.842V531.21C185.803 530.521 185.617 529.989 185.285 529.613C184.953 529.232 184.504 529.042 183.938 529.042ZM194.572 529.174H191.914V536H190.559V529.174H187.951V528.075H194.572V529.174Z" fill="black"/>
</svg>
